STARTFONT 2.1
COMMENT "This file is part of bdf-tewi."
COMMENT ""
COMMENT "Tewi is free software: you can redistribute it and/or modify"
COMMENT "it under the terms of the GNU General Public License as published by"
COMMENT "the Free Software Foundation, either version 3 of the License, or"
COMMENT "(at your option) any later version."
COMMENT ""
COMMENT "Tewi is distributed in the hope that it will be useful,"
COMMENT "but WITHOUT ANY WARRANTY; without even the implied warranty of"
COMMENT "MERCHANTABILITY or FITNESS FOR A PARTICULAR PURPOSE.  See the"
COMMENT "GNU General Public License for more details."
COMMENT ""
COMMENT "You should have received a copy of the GNU General Public License"
COMMENT "along with bdf-tewi.  If not, see <http://www.gnu.org/licenses/>."
FONT -ne-Tewi-medium-R-Normal--11-90-75-75-P-58-ISO10646-1
SIZE 11 75 75
FONTBOUNDINGBOX 10 15 -2 -3
STARTPROPERTIES 33
FOUNDRY "ne"
FAMILY_NAME "Tewi"
WEIGHT_NAME "medium"
WEIGHT 10
SLANT "R"
SETWIDTH_NAME "Normal"
ADD_STYLE_NAME ""
PIXEL_SIZE 11
POINT_SIZE 90
RESOLUTION_X 75
RESOLUTION_Y 75
SPACING "P"
AVERAGE_WIDTH 58
CHARSET_REGISTRY "ISO10646"
CHARSET_ENCODING "1"
COPYRIGHT "© neeee <ne.tetewi@gmail.com>"
CHARSET_COLLECTIONS "ISO8859-2 ISO8859-5 ISO8859-9 ISO8859-4 ISO10646-1"
FONT_NAME "Tewi"
FACE_NAME "Tewi"
FONT_VERSION "5.1d1e1"
FONT_ASCENT 9
FONT_DESCENT 2
UNDERLINE_POSITION 0
UNDERLINE_THICKNESS 1
X_HEIGHT 4
CAP_HEIGHT 6
RAW_ASCENT 799
RAW_DESCENT 200
NORM_SPACE 6
FIGURE_WIDTH 6
AVG_LOWERCASE_WIDTH 57
AVG_UPPERCASE_WIDTH "56"
_GBDFED_INFO "Edited with gbdfed 1.6."
ENDPROPERTIES
CHARS 820
STARTCHAR .null.dup1
ENCODING 0
SWIDTH 0 0
DWIDTH 0 0
BBX 0 0 0 0
BITMAP
ENDCHAR
STARTCHAR .null
ENCODING 8
SWIDTH 0 0
DWIDTH 0 0
BBX 0 0 0 0
BITMAP
ENDCHAR
STARTCHAR nonmarkingreturn
ENCODING 9
SWIDTH 523 0
DWIDTH 6 0
BBX 0 0 0 0
BITMAP
ENDCHAR
STARTCHAR nonmarkingreturn.dup2
ENCODING 10
SWIDTH 523 0
DWIDTH 6 0
BBX 0 0 0 0
BITMAP
ENDCHAR
STARTCHAR nonmarkingreturn.dup3
ENCODING 13
SWIDTH 523 0
DWIDTH 6 0
BBX 0 0 0 0
BITMAP
ENDCHAR
STARTCHAR .null.dup4
ENCODING 29
SWIDTH 0 0
DWIDTH 0 0
BBX 0 0 0 0
BITMAP
ENDCHAR
STARTCHAR space
ENCODING 32
SWIDTH 523 0
DWIDTH 6 0
BBX 0 0 0 0
BITMAP
ENDCHAR
STARTCHAR exclam
ENCODING 33
SWIDTH 523 0
DWIDTH 6 0
BBX 1 7 2 0
BITMAP
80
80
80
80
80
00
80
ENDCHAR
STARTCHAR quotedbl
ENCODING 34
SWIDTH 523 0
DWIDTH 6 0
BBX 3 3 1 4
BITMAP
A0
A0
A0
ENDCHAR
STARTCHAR numbersign
ENCODING 35
SWIDTH 523 0
DWIDTH 6 0
BBX 5 5 0 1
BITMAP
50
F8
50
F8
50
ENDCHAR
STARTCHAR dollar
ENCODING 36
SWIDTH 523 0
DWIDTH 6 0
BBX 5 9 0 -1
BITMAP
20
70
A8
A0
70
28
A8
70
20
ENDCHAR
STARTCHAR percent
ENCODING 37
SWIDTH 523 0
DWIDTH 6 0
BBX 5 7 0 0
BITMAP
48
A8
50
20
50
A8
90
ENDCHAR
STARTCHAR ampersand
ENCODING 38
SWIDTH 523 0
DWIDTH 6 0
BBX 5 7 0 0
BITMAP
60
90
A0
40
A8
90
68
ENDCHAR
STARTCHAR quotesingle
ENCODING 39
SWIDTH 523 0
DWIDTH 6 0
BBX 1 3 2 5
BITMAP
80
80
80
ENDCHAR
STARTCHAR parenleft
ENCODING 40
SWIDTH 523 0
DWIDTH 6 0
BBX 3 9 1 -1
BITMAP
20
40
40
80
80
80
40
40
20
ENDCHAR
STARTCHAR parenright
ENCODING 41
SWIDTH 523 0
DWIDTH 6 0
BBX 3 9 2 -1
BITMAP
80
40
40
20
20
20
40
40
80
ENDCHAR
STARTCHAR asterisk
ENCODING 42
SWIDTH 523 0
DWIDTH 6 0
BBX 5 5 0 1
BITMAP
20
A8
70
A8
20
ENDCHAR
STARTCHAR plus
ENCODING 43
SWIDTH 523 0
DWIDTH 6 0
BBX 5 5 0 1
BITMAP
20
20
F8
20
20
ENDCHAR
STARTCHAR comma
ENCODING 44
SWIDTH 523 0
DWIDTH 6 0
BBX 2 4 1 -2
BITMAP
C0
C0
40
80
ENDCHAR
STARTCHAR hyphen
ENCODING 45
SWIDTH 523 0
DWIDTH 6 0
BBX 5 1 0 3
BITMAP
F8
ENDCHAR
STARTCHAR period
ENCODING 46
SWIDTH 523 0
DWIDTH 6 0
BBX 2 2 2 0
BITMAP
C0
C0
ENDCHAR
STARTCHAR slash
ENCODING 47
SWIDTH 523 0
DWIDTH 6 0
BBX 5 10 0 -2
BITMAP
08
08
10
10
20
20
40
40
80
80
ENDCHAR
STARTCHAR zero
ENCODING 48
SWIDTH 523 0
DWIDTH 6 0
BBX 5 7 0 0
BITMAP
70
88
98
A8
C8
88
70
ENDCHAR
STARTCHAR one
ENCODING 49
SWIDTH 523 0
DWIDTH 6 0
BBX 3 7 1 0
BITMAP
40
C0
40
40
40
40
E0
ENDCHAR
STARTCHAR two
ENCODING 50
SWIDTH 523 0
DWIDTH 6 0
BBX 5 7 0 0
BITMAP
70
88
08
10
20
40
F8
ENDCHAR
STARTCHAR three
ENCODING 51
SWIDTH 523 0
DWIDTH 6 0
BBX 5 7 0 0
BITMAP
70
88
08
30
08
88
70
ENDCHAR
STARTCHAR four
ENCODING 52
SWIDTH 523 0
DWIDTH 6 0
BBX 5 7 0 0
BITMAP
10
30
50
90
F8
10
38
ENDCHAR
STARTCHAR five
ENCODING 53
SWIDTH 523 0
DWIDTH 6 0
BBX 5 7 0 0
BITMAP
F8
80
F0
08
08
88
70
ENDCHAR
STARTCHAR six
ENCODING 54
SWIDTH 523 0
DWIDTH 6 0
BBX 5 7 0 0
BITMAP
70
80
F0
88
88
88
70
ENDCHAR
STARTCHAR seven
ENCODING 55
SWIDTH 523 0
DWIDTH 6 0
BBX 5 7 0 0
BITMAP
F8
08
08
10
20
20
20
ENDCHAR
STARTCHAR eight
ENCODING 56
SWIDTH 523 0
DWIDTH 6 0
BBX 5 7 0 0
BITMAP
70
88
88
70
88
88
70
ENDCHAR
STARTCHAR nine
ENCODING 57
SWIDTH 523 0
DWIDTH 6 0
BBX 5 7 0 0
BITMAP
70
88
88
88
78
08
70
ENDCHAR
STARTCHAR colon
ENCODING 58
SWIDTH 523 0
DWIDTH 6 0
BBX 2 6 2 0
BITMAP
C0
C0
00
00
C0
C0
ENDCHAR
STARTCHAR semicolon
ENCODING 59
SWIDTH 523 0
DWIDTH 6 0
BBX 2 8 1 -2
BITMAP
C0
C0
00
00
C0
C0
40
80
ENDCHAR
STARTCHAR less
ENCODING 60
SWIDTH 523 0
DWIDTH 6 0
BBX 4 7 1 0
BITMAP
10
20
40
80
40
20
10
ENDCHAR
STARTCHAR equal
ENCODING 61
SWIDTH 523 0
DWIDTH 6 0
BBX 5 3 0 2
BITMAP
F8
00
F8
ENDCHAR
STARTCHAR greater
ENCODING 62
SWIDTH 523 0
DWIDTH 6 0
BBX 4 7 1 0
BITMAP
80
40
20
10
20
40
80
ENDCHAR
STARTCHAR question
ENCODING 63
SWIDTH 523 0
DWIDTH 6 0
BBX 5 7 0 0
BITMAP
70
88
08
10
20
00
20
ENDCHAR
STARTCHAR at
ENCODING 64
SWIDTH 523 0
DWIDTH 6 0
BBX 5 7 0 0
BITMAP
70
88
B8
A8
B8
80
78
ENDCHAR
STARTCHAR A
ENCODING 65
SWIDTH 523 0
DWIDTH 6 0
BBX 5 7 0 0
BITMAP
70
88
88
F8
88
88
88
ENDCHAR
STARTCHAR B
ENCODING 66
SWIDTH 523 0
DWIDTH 6 0
BBX 5 7 0 0
BITMAP
F0
88
88
F0
88
88
F0
ENDCHAR
STARTCHAR C
ENCODING 67
SWIDTH 523 0
DWIDTH 6 0
BBX 5 7 0 0
BITMAP
70
88
80
80
80
88
70
ENDCHAR
STARTCHAR D
ENCODING 68
SWIDTH 523 0
DWIDTH 6 0
BBX 5 7 0 0
BITMAP
F0
88
88
88
88
88
F0
ENDCHAR
STARTCHAR E
ENCODING 69
SWIDTH 523 0
DWIDTH 6 0
BBX 5 7 0 0
BITMAP
F8
80
80
F0
80
80
F8
ENDCHAR
STARTCHAR F
ENCODING 70
SWIDTH 523 0
DWIDTH 6 0
BBX 5 7 0 0
BITMAP
F8
80
80
F0
80
80
80
ENDCHAR
STARTCHAR G
ENCODING 71
SWIDTH 523 0
DWIDTH 6 0
BBX 5 7 0 0
BITMAP
70
88
80
98
88
88
70
ENDCHAR
STARTCHAR H
ENCODING 72
SWIDTH 523 0
DWIDTH 6 0
BBX 5 7 0 0
BITMAP
88
88
88
F8
88
88
88
ENDCHAR
STARTCHAR I
ENCODING 73
SWIDTH 523 0
DWIDTH 6 0
BBX 3 7 1 0
BITMAP
E0
40
40
40
40
40
E0
ENDCHAR
STARTCHAR J
ENCODING 74
SWIDTH 523 0
DWIDTH 6 0
BBX 5 7 0 0
BITMAP
08
08
08
08
88
88
70
ENDCHAR
STARTCHAR K
ENCODING 75
SWIDTH 523 0
DWIDTH 6 0
BBX 5 7 0 0
BITMAP
88
90
A0
C0
A0
90
88
ENDCHAR
STARTCHAR L
ENCODING 76
SWIDTH 523 0
DWIDTH 6 0
BBX 5 7 0 0
BITMAP
80
80
80
80
80
80
F8
ENDCHAR
STARTCHAR M
ENCODING 77
SWIDTH 523 0
DWIDTH 6 0
BBX 5 7 0 0
BITMAP
88
D8
A8
88
88
88
88
ENDCHAR
STARTCHAR N
ENCODING 78
SWIDTH 523 0
DWIDTH 6 0
BBX 5 7 0 0
BITMAP
C8
C8
A8
A8
A8
98
98
ENDCHAR
STARTCHAR O
ENCODING 79
SWIDTH 523 0
DWIDTH 6 0
BBX 5 7 0 0
BITMAP
70
88
88
88
88
88
70
ENDCHAR
STARTCHAR P
ENCODING 80
SWIDTH 523 0
DWIDTH 6 0
BBX 5 7 0 0
BITMAP
F0
88
88
F0
80
80
80
ENDCHAR
STARTCHAR Q
ENCODING 81
SWIDTH 523 0
DWIDTH 6 0
BBX 5 8 0 -1
BITMAP
70
88
88
88
88
88
70
08
ENDCHAR
STARTCHAR R
ENCODING 82
SWIDTH 523 0
DWIDTH 6 0
BBX 5 7 0 0
BITMAP
F0
88
88
F0
88
88
88
ENDCHAR
STARTCHAR S
ENCODING 83
SWIDTH 523 0
DWIDTH 6 0
BBX 5 7 0 0
BITMAP
70
88
80
70
08
88
70
ENDCHAR
STARTCHAR T
ENCODING 84
SWIDTH 523 0
DWIDTH 6 0
BBX 5 7 0 0
BITMAP
F8
20
20
20
20
20
20
ENDCHAR
STARTCHAR U
ENCODING 85
SWIDTH 523 0
DWIDTH 6 0
BBX 5 7 0 0
BITMAP
88
88
88
88
88
88
70
ENDCHAR
STARTCHAR V
ENCODING 86
SWIDTH 523 0
DWIDTH 6 0
BBX 5 7 0 0
BITMAP
88
88
88
50
50
20
20
ENDCHAR
STARTCHAR W
ENCODING 87
SWIDTH 523 0
DWIDTH 6 0
BBX 5 7 0 0
BITMAP
88
88
88
A8
A8
50
50
ENDCHAR
STARTCHAR X
ENCODING 88
SWIDTH 523 0
DWIDTH 6 0
BBX 5 7 0 0
BITMAP
88
88
50
20
50
88
88
ENDCHAR
STARTCHAR Y
ENCODING 89
SWIDTH 523 0
DWIDTH 6 0
BBX 5 7 0 0
BITMAP
88
88
88
50
20
20
20
ENDCHAR
STARTCHAR Z
ENCODING 90
SWIDTH 523 0
DWIDTH 6 0
BBX 5 7 0 0
BITMAP
F8
08
10
20
40
80
F8
ENDCHAR
STARTCHAR bracketleft
ENCODING 91
SWIDTH 523 0
DWIDTH 6 0
BBX 2 9 2 -1
BITMAP
C0
80
80
80
80
80
80
80
C0
ENDCHAR
STARTCHAR backslash
ENCODING 92
SWIDTH 523 0
DWIDTH 6 0
BBX 5 10 0 -2
BITMAP
80
80
40
40
20
20
10
10
08
08
ENDCHAR
STARTCHAR bracketright
ENCODING 93
SWIDTH 523 0
DWIDTH 6 0
BBX 2 9 2 -1
BITMAP
C0
40
40
40
40
40
40
40
C0
ENDCHAR
STARTCHAR asciicircum
ENCODING 94
SWIDTH 523 0
DWIDTH 6 0
BBX 5 3 1 5
BITMAP
20
50
88
ENDCHAR
STARTCHAR underscore
ENCODING 95
SWIDTH 523 0
DWIDTH 6 0
BBX 6 1 0 0
BITMAP
FC
ENDCHAR
STARTCHAR grave
ENCODING 96
SWIDTH 523 0
DWIDTH 6 0
BBX 3 3 1 5
BITMAP
80
40
20
ENDCHAR
STARTCHAR a
ENCODING 97
SWIDTH 523 0
DWIDTH 6 0
BBX 5 5 0 0
BITMAP
78
88
88
98
68
ENDCHAR
STARTCHAR b
ENCODING 98
SWIDTH 523 0
DWIDTH 6 0
BBX 5 7 0 0
BITMAP
80
80
F0
88
88
88
F0
ENDCHAR
STARTCHAR c
ENCODING 99
SWIDTH 523 0
DWIDTH 6 0
BBX 5 5 0 0
BITMAP
70
88
80
80
78
ENDCHAR
STARTCHAR d
ENCODING 100
SWIDTH 523 0
DWIDTH 6 0
BBX 5 7 0 0
BITMAP
08
08
78
88
88
88
78
ENDCHAR
STARTCHAR e
ENCODING 101
SWIDTH 523 0
DWIDTH 6 0
BBX 5 5 0 0
BITMAP
70
88
F8
80
78
ENDCHAR
STARTCHAR f
ENCODING 102
SWIDTH 523 0
DWIDTH 6 0
BBX 4 7 0 0
BITMAP
30
40
40
E0
40
40
40
ENDCHAR
STARTCHAR g
ENCODING 103
SWIDTH 523 0
DWIDTH 6 0
BBX 5 7 0 -2
BITMAP
78
88
88
88
78
08
70
ENDCHAR
STARTCHAR h
ENCODING 104
SWIDTH 523 0
DWIDTH 6 0
BBX 5 7 0 0
BITMAP
80
80
F0
88
88
88
88
ENDCHAR
STARTCHAR i
ENCODING 105
SWIDTH 523 0
DWIDTH 6 0
BBX 3 7 1 0
BITMAP
40
00
C0
40
40
40
60
ENDCHAR
STARTCHAR j
ENCODING 106
SWIDTH 523 0
DWIDTH 6 0
BBX 3 9 0 -2
BITMAP
20
00
60
20
20
20
20
20
C0
ENDCHAR
STARTCHAR k
ENCODING 107
SWIDTH 523 0
DWIDTH 6 0
BBX 5 7 0 0
BITMAP
80
80
90
A0
E0
90
88
ENDCHAR
STARTCHAR l
ENCODING 108
SWIDTH 523 0
DWIDTH 6 0
BBX 3 7 1 0
BITMAP
C0
40
40
40
40
40
60
ENDCHAR
STARTCHAR m
ENCODING 109
SWIDTH 523 0
DWIDTH 6 0
BBX 5 5 0 0
BITMAP
F0
A8
A8
A8
A8
ENDCHAR
STARTCHAR n
ENCODING 110
SWIDTH 523 0
DWIDTH 6 0
BBX 5 5 0 0
BITMAP
B0
C8
88
88
88
ENDCHAR
STARTCHAR o
ENCODING 111
SWIDTH 523 0
DWIDTH 6 0
BBX 5 5 0 0
BITMAP
70
88
88
88
70
ENDCHAR
STARTCHAR p
ENCODING 112
SWIDTH 523 0
DWIDTH 6 0
BBX 5 7 0 -2
BITMAP
F0
88
88
88
F0
80
80
ENDCHAR
STARTCHAR q
ENCODING 113
SWIDTH 523 0
DWIDTH 6 0
BBX 5 7 0 -2
BITMAP
78
88
88
88
78
08
08
ENDCHAR
STARTCHAR r
ENCODING 114
SWIDTH 523 0
DWIDTH 6 0
BBX 5 5 0 0
BITMAP
B0
C8
80
80
80
ENDCHAR
STARTCHAR s
ENCODING 115
SWIDTH 523 0
DWIDTH 6 0
BBX 5 5 0 0
BITMAP
78
80
70
08
F0
ENDCHAR
STARTCHAR t
ENCODING 116
SWIDTH 523 0
DWIDTH 6 0
BBX 4 7 1 0
BITMAP
40
40
F0
40
40
40
30
ENDCHAR
STARTCHAR u
ENCODING 117
SWIDTH 523 0
DWIDTH 6 0
BBX 5 5 0 0
BITMAP
88
88
88
98
68
ENDCHAR
STARTCHAR v
ENCODING 118
SWIDTH 523 0
DWIDTH 6 0
BBX 5 5 0 0
BITMAP
88
88
50
50
20
ENDCHAR
STARTCHAR w
ENCODING 119
SWIDTH 523 0
DWIDTH 6 0
BBX 5 5 0 0
BITMAP
88
A8
A8
A8
50
ENDCHAR
STARTCHAR x
ENCODING 120
SWIDTH 523 0
DWIDTH 6 0
BBX 5 5 0 0
BITMAP
88
50
20
50
88
ENDCHAR
STARTCHAR y
ENCODING 121
SWIDTH 523 0
DWIDTH 6 0
BBX 5 7 0 -2
BITMAP
88
88
88
88
78
08
70
ENDCHAR
STARTCHAR z
ENCODING 122
SWIDTH 523 0
DWIDTH 6 0
BBX 5 5 0 0
BITMAP
F8
10
20
40
F8
ENDCHAR
STARTCHAR braceleft
ENCODING 123
SWIDTH 523 0
DWIDTH 6 0
BBX 5 9 0 -1
BITMAP
18
20
20
20
C0
20
20
20
18
ENDCHAR
STARTCHAR bar
ENCODING 124
SWIDTH 523 0
DWIDTH 6 0
BBX 1 10 2 -2
BITMAP
80
80
80
80
80
80
80
80
80
80
ENDCHAR
STARTCHAR braceright
ENCODING 125
SWIDTH 523 0
DWIDTH 6 0
BBX 5 9 0 -1
BITMAP
C0
20
20
20
18
20
20
20
C0
ENDCHAR
STARTCHAR asciitilde
ENCODING 126
SWIDTH 523 0
DWIDTH 6 0
BBX 5 2 0 3
BITMAP
68
B0
ENDCHAR
STARTCHAR uni0095
ENCODING 149
SWIDTH 523 0
DWIDTH 6 0
BBX 5 5 0 1
BITMAP
70
F8
F8
F8
70
ENDCHAR
STARTCHAR uni0099
ENCODING 153
SWIDTH 523 0
DWIDTH 6 0
BBX 6 3 0 4
BITMAP
F4
5C
5C
ENDCHAR
STARTCHAR nonbreakingspace
ENCODING 160
SWIDTH 523 0
DWIDTH 6 0
BBX 0 0 0 0
BITMAP
ENDCHAR
STARTCHAR exclamdown
ENCODING 161
SWIDTH 523 0
DWIDTH 6 0
BBX 1 7 3 0
BITMAP
80
00
80
80
80
80
80
ENDCHAR
STARTCHAR cent
ENCODING 162
SWIDTH 523 0
DWIDTH 6 0
BBX 5 7 0 -1
BITMAP
20
70
A8
A0
A8
70
20
ENDCHAR
STARTCHAR sterling
ENCODING 163
SWIDTH 523 0
DWIDTH 6 0
BBX 5 8 0 0
BITMAP
30
40
40
E0
40
40
48
B0
ENDCHAR
STARTCHAR currency
ENCODING 164
SWIDTH 523 0
DWIDTH 6 0
BBX 5 5 0 1
BITMAP
88
70
50
70
88
ENDCHAR
STARTCHAR yen
ENCODING 165
SWIDTH 523 0
DWIDTH 6 0
BBX 5 8 0 -1
BITMAP
88
88
50
F8
20
F8
20
20
ENDCHAR
STARTCHAR brokenbar
ENCODING 166
SWIDTH 523 0
DWIDTH 6 0
BBX 1 10 2 -2
BITMAP
80
80
80
80
00
00
80
80
80
80
ENDCHAR
STARTCHAR section
ENCODING 167
SWIDTH 523 0
DWIDTH 6 0
BBX 5 10 0 -1
BITMAP
70
88
48
A0
90
48
28
90
88
70
ENDCHAR
STARTCHAR dieresis
ENCODING 168
SWIDTH 523 0
DWIDTH 6 0
BBX 3 1 1 6
BITMAP
A0
ENDCHAR
STARTCHAR copyright
ENCODING 169
SWIDTH 523 0
DWIDTH 6 0
BBX 5 8 0 -1
BITMAP
F0
08
68
88
88
68
08
F0
ENDCHAR
STARTCHAR ordfeminine
ENCODING 170
SWIDTH 523 0
DWIDTH 6 0
BBX 4 6 1 1
BITMAP
70
90
B0
50
00
F0
ENDCHAR
STARTCHAR guillemotleft
ENCODING 171
SWIDTH 523 0
DWIDTH 6 0
BBX 5 4 0 1
BITMAP
48
90
90
48
ENDCHAR
STARTCHAR logicalnot
ENCODING 172
SWIDTH 523 0
DWIDTH 6 0
BBX 5 3 0 1
BITMAP
F8
08
08
ENDCHAR
STARTCHAR softhyphen
ENCODING 173
SWIDTH 436 0
DWIDTH 5 0
BBX 3 1 1 2
BITMAP
E0
ENDCHAR
STARTCHAR registered
ENCODING 174
SWIDTH 523 0
DWIDTH 6 0
BBX 5 8 0 -1
BITMAP
F0
08
C8
A8
C8
A8
08
F0
ENDCHAR
STARTCHAR macron
ENCODING 175
SWIDTH 523 0
DWIDTH 6 0
BBX 4 1 1 7
BITMAP
F0
ENDCHAR
STARTCHAR degree
ENCODING 176
SWIDTH 523 0
DWIDTH 6 0
BBX 4 4 1 4
BITMAP
60
90
90
60
ENDCHAR
STARTCHAR plusminus
ENCODING 177
SWIDTH 523 0
DWIDTH 6 0
BBX 5 7 0 0
BITMAP
20
20
F8
20
20
00
F8
ENDCHAR
STARTCHAR twosuperior
ENCODING 178
SWIDTH 436 0
DWIDTH 5 0
BBX 3 4 1 3
BITMAP
C0
20
40
E0
ENDCHAR
STARTCHAR threesuperior
ENCODING 179
SWIDTH 436 0
DWIDTH 5 0
BBX 3 5 2 2
BITMAP
C0
20
60
20
C0
ENDCHAR
STARTCHAR acute
ENCODING 180
SWIDTH 523 0
DWIDTH 6 0
BBX 3 3 2 5
BITMAP
20
40
80
ENDCHAR
STARTCHAR mu
ENCODING 181
SWIDTH 523 0
DWIDTH 6 0
BBX 5 7 0 -2
BITMAP
90
90
90
90
E8
80
80
ENDCHAR
STARTCHAR paragraph
ENCODING 182
SWIDTH 523 0
DWIDTH 6 0
BBX 6 8 0 0
BITMAP
7C
E8
E8
E8
78
28
28
2C
ENDCHAR
STARTCHAR periodcentered
ENCODING 183
SWIDTH 523 0
DWIDTH 6 0
BBX 2 2 2 2
BITMAP
C0
C0
ENDCHAR
STARTCHAR cedilla
ENCODING 184
SWIDTH 523 0
DWIDTH 6 0
BBX 2 3 2 -3
BITMAP
80
40
80
ENDCHAR
STARTCHAR onesuperior
ENCODING 185
SWIDTH 436 0
DWIDTH 5 0
BBX 3 4 1 3
BITMAP
C0
40
40
E0
ENDCHAR
STARTCHAR ordmasculine
ENCODING 186
SWIDTH 523 0
DWIDTH 6 0
BBX 4 6 1 1
BITMAP
60
90
90
60
00
F0
ENDCHAR
STARTCHAR guillemotright
ENCODING 187
SWIDTH 523 0
DWIDTH 6 0
BBX 5 4 0 1
BITMAP
90
48
48
90
ENDCHAR
STARTCHAR onequarter
ENCODING 188
SWIDTH 436 0
DWIDTH 5 0
BBX 5 7 0 0
BITMAP
C0
48
50
28
58
B8
08
ENDCHAR
STARTCHAR onehalf
ENCODING 189
SWIDTH 436 0
DWIDTH 5 0
BBX 5 7 0 0
BITMAP
C0
48
50
30
48
90
38
ENDCHAR
STARTCHAR threequarters
ENCODING 190
SWIDTH 436 0
DWIDTH 5 0
BBX 5 8 0 0
BITMAP
80
40
C8
50
A8
58
B8
08
ENDCHAR
STARTCHAR questiondown
ENCODING 191
SWIDTH 523 0
DWIDTH 6 0
BBX 5 7 0 0
BITMAP
20
00
20
40
80
88
70
ENDCHAR
STARTCHAR Agrave
ENCODING 192
SWIDTH 523 0
DWIDTH 6 0
BBX 5 9 0 0
BITMAP
40
20
70
88
88
F8
88
88
88
ENDCHAR
STARTCHAR Aacute
ENCODING 193
SWIDTH 523 0
DWIDTH 6 0
BBX 5 9 0 0
BITMAP
10
20
70
88
88
F8
88
88
88
ENDCHAR
STARTCHAR Acircumflex
ENCODING 194
SWIDTH 523 0
DWIDTH 6 0
BBX 5 9 0 0
BITMAP
20
50
70
88
88
F8
88
88
88
ENDCHAR
STARTCHAR Atilde
ENCODING 195
SWIDTH 523 0
DWIDTH 6 0
BBX 5 9 0 0
BITMAP
68
B0
70
88
88
F8
88
88
88
ENDCHAR
STARTCHAR Adieresis
ENCODING 196
SWIDTH 523 0
DWIDTH 6 0
BBX 5 9 0 0
BITMAP
50
00
70
88
88
F8
88
88
88
ENDCHAR
STARTCHAR Aring
ENCODING 197
SWIDTH 523 0
DWIDTH 6 0
BBX 5 9 0 0
BITMAP
20
50
20
70
88
88
F8
88
88
ENDCHAR
STARTCHAR AE
ENCODING 198
SWIDTH 523 0
DWIDTH 6 0
BBX 5 7 0 0
BITMAP
78
A0
A0
F0
A0
A0
B8
ENDCHAR
STARTCHAR Ccedilla
ENCODING 199
SWIDTH 523 0
DWIDTH 6 0
BBX 5 9 0 -2
BITMAP
70
88
80
80
80
88
70
20
40
ENDCHAR
STARTCHAR Egrave
ENCODING 200
SWIDTH 523 0
DWIDTH 6 0
BBX 5 9 0 0
BITMAP
40
20
F8
80
80
F0
80
80
F8
ENDCHAR
STARTCHAR Eacute
ENCODING 201
SWIDTH 523 0
DWIDTH 6 0
BBX 5 9 0 0
BITMAP
10
20
F8
80
80
F0
80
80
F8
ENDCHAR
STARTCHAR Ecircumflex
ENCODING 202
SWIDTH 523 0
DWIDTH 6 0
BBX 5 9 1 0
BITMAP
20
50
F8
80
80
F0
80
80
F8
ENDCHAR
STARTCHAR Edieresis
ENCODING 203
SWIDTH 523 0
DWIDTH 6 0
BBX 5 9 0 0
BITMAP
50
00
F8
80
80
F0
80
80
F8
ENDCHAR
STARTCHAR Igrave
ENCODING 204
SWIDTH 523 0
DWIDTH 6 0
BBX 3 9 1 0
BITMAP
40
20
E0
40
40
40
40
40
E0
ENDCHAR
STARTCHAR Iacute
ENCODING 205
SWIDTH 523 0
DWIDTH 6 0
BBX 3 9 1 0
BITMAP
40
80
E0
40
40
40
40
40
E0
ENDCHAR
STARTCHAR Icircumflex
ENCODING 206
SWIDTH 523 0
DWIDTH 6 0
BBX 3 9 1 0
BITMAP
40
A0
E0
40
40
40
40
40
E0
ENDCHAR
STARTCHAR Idieresis
ENCODING 207
SWIDTH 523 0
DWIDTH 6 0
BBX 3 9 1 0
BITMAP
A0
00
E0
40
40
40
40
40
E0
ENDCHAR
STARTCHAR Eth
ENCODING 208
SWIDTH 523 0
DWIDTH 6 0
BBX 6 7 -1 0
BITMAP
78
44
44
F4
44
44
78
ENDCHAR
STARTCHAR Ntilde
ENCODING 209
SWIDTH 523 0
DWIDTH 6 0
BBX 5 9 0 0
BITMAP
68
B0
88
C8
A8
98
88
88
88
ENDCHAR
STARTCHAR Ograve
ENCODING 210
SWIDTH 523 0
DWIDTH 6 0
BBX 5 9 0 0
BITMAP
40
20
70
88
88
88
88
88
70
ENDCHAR
STARTCHAR Oacute
ENCODING 211
SWIDTH 523 0
DWIDTH 6 0
BBX 5 9 0 0
BITMAP
10
20
70
88
88
88
88
88
70
ENDCHAR
STARTCHAR Ocircumflex
ENCODING 212
SWIDTH 523 0
DWIDTH 6 0
BBX 5 9 0 0
BITMAP
20
50
70
88
88
88
88
88
70
ENDCHAR
STARTCHAR Otilde
ENCODING 213
SWIDTH 523 0
DWIDTH 6 0
BBX 5 9 0 0
BITMAP
68
B0
70
88
88
88
88
88
70
ENDCHAR
STARTCHAR Odieresis
ENCODING 214
SWIDTH 523 0
DWIDTH 6 0
BBX 5 9 0 0
BITMAP
50
00
70
88
88
88
88
88
70
ENDCHAR
STARTCHAR multiply
ENCODING 215
SWIDTH 523 0
DWIDTH 6 0
BBX 5 5 0 1
BITMAP
88
50
20
50
88
ENDCHAR
STARTCHAR Oslash
ENCODING 216
SWIDTH 523 0
DWIDTH 6 0
BBX 7 7 -1 0
BITMAP
3A
44
4C
54
64
44
B8
ENDCHAR
STARTCHAR Ugrave
ENCODING 217
SWIDTH 523 0
DWIDTH 6 0
BBX 5 9 0 0
BITMAP
40
20
88
88
88
88
88
88
70
ENDCHAR
STARTCHAR Uacute
ENCODING 218
SWIDTH 523 0
DWIDTH 6 0
BBX 5 9 0 0
BITMAP
10
20
88
88
88
88
88
88
70
ENDCHAR
STARTCHAR Ucircumflex
ENCODING 219
SWIDTH 523 0
DWIDTH 6 0
BBX 5 9 0 0
BITMAP
20
50
00
88
88
88
88
88
70
ENDCHAR
STARTCHAR Udieresis
ENCODING 220
SWIDTH 523 0
DWIDTH 6 0
BBX 5 9 0 0
BITMAP
50
00
88
88
88
88
88
88
70
ENDCHAR
STARTCHAR Yacute
ENCODING 221
SWIDTH 523 0
DWIDTH 6 0
BBX 5 9 0 0
BITMAP
10
20
88
88
88
50
20
20
20
ENDCHAR
STARTCHAR Thorn
ENCODING 222
SWIDTH 523 0
DWIDTH 6 0
BBX 6 9 -1 -2
BITMAP
E0
40
78
44
44
44
78
40
E0
ENDCHAR
STARTCHAR germandbls
ENCODING 223
SWIDTH 523 0
DWIDTH 6 0
BBX 5 9 0 -1
BITMAP
30
48
88
90
90
88
88
B0
80
ENDCHAR
STARTCHAR agrave
ENCODING 224
SWIDTH 523 0
DWIDTH 6 0
BBX 5 8 0 0
BITMAP
20
10
00
78
88
88
98
68
ENDCHAR
STARTCHAR aacute
ENCODING 225
SWIDTH 523 0
DWIDTH 6 0
BBX 5 8 0 0
BITMAP
10
20
00
78
88
88
98
68
ENDCHAR
STARTCHAR acircumflex
ENCODING 226
SWIDTH 523 0
DWIDTH 6 0
BBX 5 8 0 0
BITMAP
20
50
00
78
88
88
98
68
ENDCHAR
STARTCHAR atilde
ENCODING 227
SWIDTH 523 0
DWIDTH 6 0
BBX 5 8 0 0
BITMAP
68
B0
00
78
88
88
98
68
ENDCHAR
STARTCHAR adieresis
ENCODING 228
SWIDTH 523 0
DWIDTH 6 0
BBX 5 7 0 0
BITMAP
50
00
78
88
88
98
68
ENDCHAR
STARTCHAR aring
ENCODING 229
SWIDTH 523 0
DWIDTH 6 0
BBX 5 9 0 0
BITMAP
20
50
20
00
78
88
88
98
68
ENDCHAR
STARTCHAR ae
ENCODING 230
SWIDTH 523 0
DWIDTH 6 0
BBX 5 5 0 0
BITMAP
70
A8
B8
A0
78
ENDCHAR
STARTCHAR ccedilla
ENCODING 231
SWIDTH 523 0
DWIDTH 6 0
BBX 5 7 0 -2
BITMAP
70
88
80
80
78
20
40
ENDCHAR
STARTCHAR egrave
ENCODING 232
SWIDTH 523 0
DWIDTH 6 0
BBX 5 8 0 0
BITMAP
40
20
00
70
88
F8
80
78
ENDCHAR
STARTCHAR eacute
ENCODING 233
SWIDTH 523 0
DWIDTH 6 0
BBX 5 8 0 0
BITMAP
10
20
00
70
88
F8
80
78
ENDCHAR
STARTCHAR ecircumflex
ENCODING 234
SWIDTH 523 0
DWIDTH 6 0
BBX 5 8 0 0
BITMAP
20
50
00
70
88
F8
80
78
ENDCHAR
STARTCHAR edieresis
ENCODING 235
SWIDTH 523 0
DWIDTH 6 0
BBX 5 7 0 0
BITMAP
50
00
70
88
F8
80
78
ENDCHAR
STARTCHAR igrave
ENCODING 236
SWIDTH 523 0
DWIDTH 6 0
BBX 3 8 1 0
BITMAP
80
40
00
C0
40
40
40
60
ENDCHAR
STARTCHAR iacute
ENCODING 237
SWIDTH 523 0
DWIDTH 6 0
BBX 3 8 1 0
BITMAP
20
40
00
C0
40
40
40
60
ENDCHAR
STARTCHAR icircumflex
ENCODING 238
SWIDTH 523 0
DWIDTH 6 0
BBX 3 8 1 0
BITMAP
40
A0
00
C0
40
40
40
60
ENDCHAR
STARTCHAR idieresis
ENCODING 239
SWIDTH 523 0
DWIDTH 6 0
BBX 3 7 1 0
BITMAP
A0
00
C0
40
40
40
60
ENDCHAR
STARTCHAR eth
ENCODING 240
SWIDTH 523 0
DWIDTH 6 0
BBX 5 9 0 0
BITMAP
50
20
50
10
78
88
88
88
70
ENDCHAR
STARTCHAR ntilde
ENCODING 241
SWIDTH 523 0
DWIDTH 6 0
BBX 5 8 0 0
BITMAP
68
B0
00
B0
C8
88
88
88
ENDCHAR
STARTCHAR ograve
ENCODING 242
SWIDTH 523 0
DWIDTH 6 0
BBX 5 8 0 0
BITMAP
40
20
00
70
88
88
88
70
ENDCHAR
STARTCHAR oacute
ENCODING 243
SWIDTH 523 0
DWIDTH 6 0
BBX 5 8 0 0
BITMAP
10
20
00
70
88
88
88
70
ENDCHAR
STARTCHAR ocircumflex
ENCODING 244
SWIDTH 523 0
DWIDTH 6 0
BBX 5 8 0 0
BITMAP
20
50
00
70
88
88
88
70
ENDCHAR
STARTCHAR otilde
ENCODING 245
SWIDTH 523 0
DWIDTH 6 0
BBX 5 8 0 0
BITMAP
68
B0
00
70
88
88
88
70
ENDCHAR
STARTCHAR odieresis
ENCODING 246
SWIDTH 523 0
DWIDTH 6 0
BBX 5 7 0 0
BITMAP
50
00
70
88
88
88
70
ENDCHAR
STARTCHAR divide
ENCODING 247
SWIDTH 523 0
DWIDTH 6 0
BBX 5 5 0 1
BITMAP
20
00
F8
00
20
ENDCHAR
STARTCHAR oslash
ENCODING 248
SWIDTH 523 0
DWIDTH 6 0
BBX 5 5 0 0
BITMAP
78
98
A8
C8
F0
ENDCHAR
STARTCHAR ugrave
ENCODING 249
SWIDTH 523 0
DWIDTH 6 0
BBX 5 8 0 0
BITMAP
40
20
00
88
88
88
98
68
ENDCHAR
STARTCHAR uacute
ENCODING 250
SWIDTH 523 0
DWIDTH 6 0
BBX 5 8 0 0
BITMAP
10
20
00
88
88
88
98
68
ENDCHAR
STARTCHAR ucircumflex
ENCODING 251
SWIDTH 523 0
DWIDTH 6 0
BBX 5 8 0 0
BITMAP
20
50
00
88
88
88
98
68
ENDCHAR
STARTCHAR udieresis
ENCODING 252
SWIDTH 523 0
DWIDTH 6 0
BBX 5 7 0 0
BITMAP
50
00
88
88
88
98
68
ENDCHAR
STARTCHAR yacute
ENCODING 253
SWIDTH 523 0
DWIDTH 6 0
BBX 5 10 0 -2
BITMAP
10
20
00
88
88
88
88
78
08
70
ENDCHAR
STARTCHAR thorn
ENCODING 254
SWIDTH 523 0
DWIDTH 6 0
BBX 5 9 0 -2
BITMAP
80
80
F0
88
88
88
F0
80
80
ENDCHAR
STARTCHAR ydieresis
ENCODING 255
SWIDTH 523 0
DWIDTH 6 0
BBX 5 9 0 -2
BITMAP
50
00
88
88
88
88
78
08
70
ENDCHAR
STARTCHAR Amacron
ENCODING 256
SWIDTH 523 0
DWIDTH 6 0
BBX 5 9 0 0
BITMAP
F8
00
70
88
88
F8
88
88
88
ENDCHAR
STARTCHAR amacron
ENCODING 257
SWIDTH 523 0
DWIDTH 6 0
BBX 5 7 0 0
BITMAP
F8
00
78
88
88
98
68
ENDCHAR
STARTCHAR Abreve
ENCODING 258
SWIDTH 523 0
DWIDTH 6 0
BBX 5 10 0 0
BITMAP
88
70
00
70
88
88
F8
88
88
88
ENDCHAR
STARTCHAR abreve
ENCODING 259
SWIDTH 523 0
DWIDTH 6 0
BBX 5 8 0 0
BITMAP
88
70
00
78
88
88
98
68
ENDCHAR
STARTCHAR Aogonek
ENCODING 260
SWIDTH 523 0
DWIDTH 6 0
BBX 6 8 0 -1
BITMAP
70
88
88
F8
88
88
88
04
ENDCHAR
STARTCHAR aogonek
ENCODING 261
SWIDTH 523 0
DWIDTH 6 0
BBX 6 6 0 -1
BITMAP
78
88
88
98
68
04
ENDCHAR
STARTCHAR Cacute
ENCODING 262
SWIDTH 523 0
DWIDTH 6 0
BBX 5 9 0 0
BITMAP
10
20
70
88
80
80
80
88
70
ENDCHAR
STARTCHAR cacute
ENCODING 263
SWIDTH 523 0
DWIDTH 6 0
BBX 5 8 0 0
BITMAP
10
20
00
70
88
80
80
78
ENDCHAR
STARTCHAR Ccircumflex
ENCODING 264
SWIDTH 523 0
DWIDTH 6 0
BBX 5 9 0 0
BITMAP
20
50
70
88
80
80
80
88
70
ENDCHAR
STARTCHAR ccircumflex
ENCODING 265
SWIDTH 523 0
DWIDTH 6 0
BBX 5 8 0 0
BITMAP
20
50
00
70
88
80
80
78
ENDCHAR
STARTCHAR Cdotaccent
ENCODING 266
SWIDTH 523 0
DWIDTH 6 0
BBX 5 9 0 0
BITMAP
20
00
70
88
80
80
80
88
70
ENDCHAR
STARTCHAR cdotaccent
ENCODING 267
SWIDTH 523 0
DWIDTH 6 0
BBX 5 7 0 0
BITMAP
20
00
70
88
80
80
78
ENDCHAR
STARTCHAR Ccaron
ENCODING 268
SWIDTH 523 0
DWIDTH 6 0
BBX 5 9 0 0
BITMAP
50
20
70
88
80
80
80
88
70
ENDCHAR
STARTCHAR ccaron
ENCODING 269
SWIDTH 523 0
DWIDTH 6 0
BBX 5 8 0 0
BITMAP
50
20
00
70
88
80
80
78
ENDCHAR
STARTCHAR Dcaron
ENCODING 270
SWIDTH 523 0
DWIDTH 6 0
BBX 5 9 0 0
BITMAP
50
20
F0
88
88
88
88
88
F0
ENDCHAR
STARTCHAR dcaron
ENCODING 271
SWIDTH 523 0
DWIDTH 6 0
BBX 6 8 0 0
BITMAP
04
14
18
70
90
90
90
70
ENDCHAR
STARTCHAR Dcroat
ENCODING 272
SWIDTH 523 0
DWIDTH 6 0
BBX 6 7 -1 0
BITMAP
78
44
44
F4
44
44
78
ENDCHAR
STARTCHAR dcroat
ENCODING 273
SWIDTH 523 0
DWIDTH 6 0
BBX 6 7 0 0
BITMAP
1C
08
78
88
88
88
78
ENDCHAR
STARTCHAR Emacron
ENCODING 274
SWIDTH 523 0
DWIDTH 6 0
BBX 5 9 0 0
BITMAP
70
00
F8
80
80
F0
80
80
F8
ENDCHAR
STARTCHAR emacron
ENCODING 275
SWIDTH 523 0
DWIDTH 6 0
BBX 5 7 0 0
BITMAP
F8
00
70
88
F8
80
78
ENDCHAR
STARTCHAR Ebreve
ENCODING 276
SWIDTH 523 0
DWIDTH 6 0
BBX 5 10 0 0
BITMAP
88
70
00
F8
80
80
F0
80
80
F8
ENDCHAR
STARTCHAR ebreve
ENCODING 277
SWIDTH 523 0
DWIDTH 6 0
BBX 5 8 0 0
BITMAP
88
70
00
70
88
F8
80
78
ENDCHAR
STARTCHAR Edotaccent
ENCODING 278
SWIDTH 523 0
DWIDTH 6 0
BBX 5 9 0 0
BITMAP
20
00
F8
80
80
F0
80
80
F8
ENDCHAR
STARTCHAR edotaccent
ENCODING 279
SWIDTH 523 0
DWIDTH 6 0
BBX 5 7 0 0
BITMAP
20
00
70
88
F8
80
78
ENDCHAR
STARTCHAR Eogonek
ENCODING 280
SWIDTH 523 0
DWIDTH 6 0
BBX 6 8 0 -1
BITMAP
F8
80
80
F0
80
80
F8
04
ENDCHAR
STARTCHAR eogonek
ENCODING 281
SWIDTH 523 0
DWIDTH 6 0
BBX 5 7 0 -2
BITMAP
70
88
F8
80
78
10
08
ENDCHAR
STARTCHAR Ecaron
ENCODING 282
SWIDTH 523 0
DWIDTH 6 0
BBX 5 9 0 0
BITMAP
50
20
F8
80
80
F0
80
80
F8
ENDCHAR
STARTCHAR ecaron
ENCODING 283
SWIDTH 523 0
DWIDTH 6 0
BBX 5 8 0 0
BITMAP
50
20
00
70
88
F8
80
78
ENDCHAR
STARTCHAR Gcircumflex
ENCODING 284
SWIDTH 523 0
DWIDTH 6 0
BBX 5 9 0 0
BITMAP
20
50
70
88
80
98
88
88
70
ENDCHAR
STARTCHAR gcircumflex
ENCODING 285
SWIDTH 523 0
DWIDTH 6 0
BBX 5 10 0 -2
BITMAP
20
50
00
78
88
88
88
78
08
70
ENDCHAR
STARTCHAR Gbreve
ENCODING 286
SWIDTH 523 0
DWIDTH 6 0
BBX 5 10 0 0
BITMAP
88
70
00
70
88
80
98
88
88
70
ENDCHAR
STARTCHAR gbreve
ENCODING 287
SWIDTH 523 0
DWIDTH 6 0
BBX 5 10 0 -2
BITMAP
88
70
00
78
88
88
88
78
08
70
ENDCHAR
STARTCHAR Gdotaccent
ENCODING 288
SWIDTH 523 0
DWIDTH 6 0
BBX 5 9 0 0
BITMAP
20
00
70
88
80
98
88
88
70
ENDCHAR
STARTCHAR gdotaccent
ENCODING 289
SWIDTH 523 0
DWIDTH 6 0
BBX 5 9 0 -2
BITMAP
20
00
78
88
88
88
78
08
70
ENDCHAR
STARTCHAR Gcommaaccent
ENCODING 290
SWIDTH 523 0
DWIDTH 6 0
BBX 5 9 0 -2
BITMAP
70
88
80
98
88
88
70
20
40
ENDCHAR
STARTCHAR gcommaaccent
ENCODING 291
SWIDTH 523 0
DWIDTH 6 0
BBX 5 10 0 -2
BITMAP
10
20
00
78
88
88
88
78
08
70
ENDCHAR
STARTCHAR Hcircumflex
ENCODING 292
SWIDTH 523 0
DWIDTH 6 0
BBX 5 9 0 0
BITMAP
20
50
88
88
88
F8
88
88
88
ENDCHAR
STARTCHAR hcircumflex
ENCODING 293
SWIDTH 523 0
DWIDTH 6 0
BBX 5 9 0 0
BITMAP
20
50
80
80
F0
88
88
88
88
ENDCHAR
STARTCHAR Hbar
ENCODING 294
SWIDTH 523 0
DWIDTH 6 0
BBX 7 7 -1 0
BITMAP
44
FE
44
7C
44
44
44
ENDCHAR
STARTCHAR hbar
ENCODING 295
SWIDTH 523 0
DWIDTH 6 0
BBX 6 7 -1 0
BITMAP
F0
40
78
44
44
44
44
ENDCHAR
STARTCHAR Itilde
ENCODING 296
SWIDTH 523 0
DWIDTH 6 0
BBX 5 10 0 0
BITMAP
68
B0
00
70
20
20
20
20
20
70
ENDCHAR
STARTCHAR itilde
ENCODING 297
SWIDTH 523 0
DWIDTH 6 0
BBX 5 8 0 0
BITMAP
68
B0
00
60
20
20
20
30
ENDCHAR
STARTCHAR Imacron
ENCODING 298
SWIDTH 523 0
DWIDTH 6 0
BBX 3 9 1 0
BITMAP
E0
00
E0
40
40
40
40
40
E0
ENDCHAR
STARTCHAR imacron
ENCODING 299
SWIDTH 523 0
DWIDTH 6 0
BBX 3 7 1 0
BITMAP
E0
00
C0
40
40
40
60
ENDCHAR
STARTCHAR Ibreve
ENCODING 300
SWIDTH 523 0
DWIDTH 6 0
BBX 5 10 0 0
BITMAP
88
70
00
70
20
20
20
20
20
70
ENDCHAR
STARTCHAR ibreve
ENCODING 301
SWIDTH 523 0
DWIDTH 6 0
BBX 5 8 0 0
BITMAP
88
70
00
60
20
20
20
30
ENDCHAR
STARTCHAR Iogonek
ENCODING 302
SWIDTH 523 0
DWIDTH 6 0
BBX 3 9 1 -2
BITMAP
E0
40
40
40
40
40
E0
80
40
ENDCHAR
STARTCHAR iogonek
ENCODING 303
SWIDTH 523 0
DWIDTH 6 0
BBX 3 9 1 -2
BITMAP
40
00
C0
40
40
40
60
80
40
ENDCHAR
STARTCHAR Idotaccent
ENCODING 304
SWIDTH 523 0
DWIDTH 6 0
BBX 3 9 1 0
BITMAP
40
00
E0
40
40
40
40
40
E0
ENDCHAR
STARTCHAR dotlessi
ENCODING 305
SWIDTH 523 0
DWIDTH 6 0
BBX 3 5 1 0
BITMAP
C0
40
40
40
60
ENDCHAR
STARTCHAR IJ
ENCODING 306
SWIDTH 523 0
DWIDTH 6 0
BBX 6 7 0 0
BITMAP
FC
44
44
44
44
54
E8
ENDCHAR
STARTCHAR ij
ENCODING 307
SWIDTH 523 0
DWIDTH 6 0
BBX 6 9 0 -2
BITMAP
44
00
CC
44
44
44
E4
04
18
ENDCHAR
STARTCHAR Jcircumflex
ENCODING 308
SWIDTH 523 0
DWIDTH 6 0
BBX 5 9 0 0
BITMAP
20
50
08
08
08
08
88
88
70
ENDCHAR
STARTCHAR jcircumflex
ENCODING 309
SWIDTH 523 0
DWIDTH 6 0
BBX 4 10 0 -2
BITMAP
20
50
00
60
20
20
20
20
20
C0
ENDCHAR
STARTCHAR Kcommaaccent
ENCODING 310
SWIDTH 523 0
DWIDTH 6 0
BBX 5 9 0 -2
BITMAP
88
90
A0
C0
A0
90
88
20
40
ENDCHAR
STARTCHAR kcommaaccent
ENCODING 311
SWIDTH 523 0
DWIDTH 6 0
BBX 5 9 0 -2
BITMAP
80
80
90
A0
E0
90
88
20
40
ENDCHAR
STARTCHAR kgreenlandic
ENCODING 312
SWIDTH 523 0
DWIDTH 6 0
BBX 4 5 0 0
BITMAP
90
A0
C0
A0
90
ENDCHAR
STARTCHAR Lacute
ENCODING 313
SWIDTH 523 0
DWIDTH 6 0
BBX 5 9 0 0
BITMAP
10
20
80
80
80
80
80
80
F8
ENDCHAR
STARTCHAR lacute
ENCODING 314
SWIDTH 523 0
DWIDTH 6 0
BBX 4 9 1 0
BITMAP
10
20
C0
40
40
40
40
40
60
ENDCHAR
STARTCHAR Lcommaaccent
ENCODING 315
SWIDTH 523 0
DWIDTH 6 0
BBX 5 9 0 -2
BITMAP
80
80
80
80
80
80
F8
20
40
ENDCHAR
STARTCHAR lcommaaccent
ENCODING 316
SWIDTH 523 0
DWIDTH 6 0
BBX 3 9 1 -2
BITMAP
C0
40
40
40
40
40
60
20
40
ENDCHAR
STARTCHAR Lcaron
ENCODING 317
SWIDTH 523 0
DWIDTH 6 0
BBX 5 8 0 0
BITMAP
30
90
80
80
80
80
80
F8
ENDCHAR
STARTCHAR lcaron
ENCODING 318
SWIDTH 523 0
DWIDTH 6 0
BBX 4 9 1 0
BITMAP
30
10
C0
40
40
40
40
40
60
ENDCHAR
STARTCHAR Ldotaccent
ENCODING 319
SWIDTH 523 0
DWIDTH 6 0
BBX 5 7 0 0
BITMAP
80
80
80
A0
80
80
F8
ENDCHAR
STARTCHAR ldotaccent
ENCODING 320
SWIDTH 523 0
DWIDTH 6 0
BBX 4 7 1 0
BITMAP
C0
40
40
50
40
40
60
ENDCHAR
STARTCHAR Lslash
ENCODING 321
SWIDTH 523 0
DWIDTH 6 0
BBX 5 7 0 0
BITMAP
80
80
A0
C0
80
80
F8
ENDCHAR
STARTCHAR lslash
ENCODING 322
SWIDTH 523 0
DWIDTH 6 0
BBX 3 7 1 0
BITMAP
C0
40
60
40
C0
40
60
ENDCHAR
STARTCHAR Nacute
ENCODING 323
SWIDTH 523 0
DWIDTH 6 0
BBX 5 9 0 0
BITMAP
10
20
88
C8
A8
98
88
88
88
ENDCHAR
STARTCHAR nacute
ENCODING 324
SWIDTH 523 0
DWIDTH 6 0
BBX 5 8 0 0
BITMAP
10
20
00
B0
C8
88
88
88
ENDCHAR
STARTCHAR Ncommaaccent
ENCODING 325
SWIDTH 523 0
DWIDTH 6 0
BBX 5 9 0 -2
BITMAP
88
C8
A8
98
88
88
A8
20
40
ENDCHAR
STARTCHAR ncommaaccent
ENCODING 326
SWIDTH 523 0
DWIDTH 6 0
BBX 5 7 0 -2
BITMAP
B0
C8
88
88
A8
20
40
ENDCHAR
STARTCHAR Ncaron
ENCODING 327
SWIDTH 523 0
DWIDTH 6 0
BBX 5 9 0 0
BITMAP
50
20
88
C8
A8
98
88
88
88
ENDCHAR
STARTCHAR ncaron
ENCODING 328
SWIDTH 523 0
DWIDTH 6 0
BBX 5 8 0 0
BITMAP
50
20
00
B0
C8
88
88
88
ENDCHAR
STARTCHAR napostrophe
ENCODING 329
SWIDTH 523 0
DWIDTH 6 0
BBX 5 8 0 0
BITMAP
80
80
00
B0
C8
88
88
88
ENDCHAR
STARTCHAR Eng
ENCODING 330
SWIDTH 523 0
DWIDTH 6 0
BBX 5 9 0 -2
BITMAP
88
C8
A8
98
88
88
88
08
30
ENDCHAR
STARTCHAR eng
ENCODING 331
SWIDTH 523 0
DWIDTH 6 0
BBX 5 7 0 -2
BITMAP
B0
C8
88
88
88
08
30
ENDCHAR
STARTCHAR Omacron
ENCODING 332
SWIDTH 523 0
DWIDTH 6 0
BBX 5 9 0 0
BITMAP
F8
00
70
88
88
88
88
88
70
ENDCHAR
STARTCHAR omacron
ENCODING 333
SWIDTH 523 0
DWIDTH 6 0
BBX 5 7 0 0
BITMAP
F8
00
70
88
88
88
70
ENDCHAR
STARTCHAR Obreve
ENCODING 334
SWIDTH 523 0
DWIDTH 6 0
BBX 5 10 0 0
BITMAP
88
70
00
70
88
88
88
88
88
70
ENDCHAR
STARTCHAR obreve
ENCODING 335
SWIDTH 523 0
DWIDTH 6 0
BBX 5 8 0 0
BITMAP
88
70
00
70
88
88
88
70
ENDCHAR
STARTCHAR Ohungarumlaut
ENCODING 336
SWIDTH 523 0
DWIDTH 6 0
BBX 5 9 0 0
BITMAP
28
50
70
88
88
88
88
88
70
ENDCHAR
STARTCHAR ohungarumlaut
ENCODING 337
SWIDTH 523 0
DWIDTH 6 0
BBX 5 8 0 0
BITMAP
28
50
00
70
88
88
88
70
ENDCHAR
STARTCHAR OE
ENCODING 338
SWIDTH 523 0
DWIDTH 6 0
BBX 5 7 0 0
BITMAP
78
A0
A0
B0
A0
A0
78
ENDCHAR
STARTCHAR oe
ENCODING 339
SWIDTH 523 0
DWIDTH 6 0
BBX 5 5 0 0
BITMAP
70
A8
B8
A0
58
ENDCHAR
STARTCHAR Racute
ENCODING 340
SWIDTH 523 0
DWIDTH 6 0
BBX 5 9 0 0
BITMAP
10
20
F0
88
88
F0
88
88
88
ENDCHAR
STARTCHAR racute
ENCODING 341
SWIDTH 523 0
DWIDTH 6 0
BBX 5 8 0 0
BITMAP
10
20
00
B0
C8
80
80
80
ENDCHAR
STARTCHAR Rcommaaccent
ENCODING 342
SWIDTH 523 0
DWIDTH 6 0
BBX 5 9 0 -2
BITMAP
F0
88
88
F0
88
88
A8
20
40
ENDCHAR
STARTCHAR rcommaaccent
ENCODING 343
SWIDTH 523 0
DWIDTH 6 0
BBX 5 7 0 -2
BITMAP
B0
C8
80
80
A0
20
40
ENDCHAR
STARTCHAR Rcaron
ENCODING 344
SWIDTH 523 0
DWIDTH 6 0
BBX 5 9 0 0
BITMAP
50
20
F0
88
88
F0
88
88
88
ENDCHAR
STARTCHAR rcaron
ENCODING 345
SWIDTH 523 0
DWIDTH 6 0
BBX 5 8 0 0
BITMAP
50
20
00
B0
C8
80
80
80
ENDCHAR
STARTCHAR Sacute
ENCODING 346
SWIDTH 523 0
DWIDTH 6 0
BBX 5 9 0 0
BITMAP
10
20
70
88
80
70
08
88
70
ENDCHAR
STARTCHAR sacute
ENCODING 347
SWIDTH 523 0
DWIDTH 6 0
BBX 5 8 0 0
BITMAP
10
20
00
78
80
70
08
F0
ENDCHAR
STARTCHAR Scircumflex
ENCODING 348
SWIDTH 523 0
DWIDTH 6 0
BBX 5 9 0 0
BITMAP
20
50
70
88
80
70
08
88
70
ENDCHAR
STARTCHAR scircumflex
ENCODING 349
SWIDTH 523 0
DWIDTH 6 0
BBX 5 8 0 0
BITMAP
20
50
00
78
80
70
08
F0
ENDCHAR
STARTCHAR Scedilla
ENCODING 350
SWIDTH 523 0
DWIDTH 6 0
BBX 5 9 0 -2
BITMAP
70
88
80
70
08
88
70
20
20
ENDCHAR
STARTCHAR scedilla
ENCODING 351
SWIDTH 523 0
DWIDTH 6 0
BBX 5 7 0 -2
BITMAP
78
80
70
08
F0
20
20
ENDCHAR
STARTCHAR Scaron
ENCODING 352
SWIDTH 523 0
DWIDTH 6 0
BBX 5 9 0 0
BITMAP
50
20
70
88
80
70
08
88
70
ENDCHAR
STARTCHAR scaron
ENCODING 353
SWIDTH 523 0
DWIDTH 6 0
BBX 5 8 0 0
BITMAP
50
20
00
78
80
70
08
F0
ENDCHAR
STARTCHAR Tcedilla
ENCODING 354
SWIDTH 523 0
DWIDTH 6 0
BBX 5 9 0 -2
BITMAP
F8
20
20
20
20
20
20
20
40
ENDCHAR
STARTCHAR tcedilla
ENCODING 355
SWIDTH 523 0
DWIDTH 6 0
BBX 4 9 1 -2
BITMAP
40
40
E0
40
40
40
30
20
20
ENDCHAR
STARTCHAR Tcaron
ENCODING 356
SWIDTH 523 0
DWIDTH 6 0
BBX 5 9 0 0
BITMAP
50
20
F8
20
20
20
20
20
20
ENDCHAR
STARTCHAR tcaron
ENCODING 357
SWIDTH 523 0
DWIDTH 6 0
BBX 5 9 1 0
BITMAP
18
08
40
40
E0
40
40
40
30
ENDCHAR
STARTCHAR Tbar
ENCODING 358
SWIDTH 523 0
DWIDTH 6 0
BBX 5 7 0 0
BITMAP
F8
20
20
F8
20
20
20
ENDCHAR
STARTCHAR tbar
ENCODING 359
SWIDTH 523 0
DWIDTH 6 0
BBX 4 7 1 0
BITMAP
40
40
E0
40
E0
40
30
ENDCHAR
STARTCHAR Utilde
ENCODING 360
SWIDTH 523 0
DWIDTH 6 0
BBX 5 10 0 0
BITMAP
68
B0
00
88
88
88
88
88
88
70
ENDCHAR
STARTCHAR utilde
ENCODING 361
SWIDTH 523 0
DWIDTH 6 0
BBX 5 8 0 0
BITMAP
68
B0
00
88
88
88
98
68
ENDCHAR
STARTCHAR Umacron
ENCODING 362
SWIDTH 523 0
DWIDTH 6 0
BBX 5 9 0 0
BITMAP
F8
00
88
88
88
88
88
88
70
ENDCHAR
STARTCHAR umacron
ENCODING 363
SWIDTH 523 0
DWIDTH 6 0
BBX 5 7 0 0
BITMAP
F8
00
88
88
88
98
68
ENDCHAR
STARTCHAR Ubreve
ENCODING 364
SWIDTH 523 0
DWIDTH 6 0
BBX 5 10 0 0
BITMAP
88
70
00
88
88
88
88
88
88
70
ENDCHAR
STARTCHAR ubreve
ENCODING 365
SWIDTH 523 0
DWIDTH 6 0
BBX 5 8 0 0
BITMAP
88
70
00
88
88
88
98
68
ENDCHAR
STARTCHAR Uring
ENCODING 366
SWIDTH 523 0
DWIDTH 6 0
BBX 5 9 0 0
BITMAP
20
50
A8
88
88
88
88
88
70
ENDCHAR
STARTCHAR uring
ENCODING 367
SWIDTH 523 0
DWIDTH 6 0
BBX 5 8 0 0
BITMAP
20
50
20
88
88
88
98
68
ENDCHAR
STARTCHAR Uhungarumlaut
ENCODING 368
SWIDTH 523 0
DWIDTH 6 0
BBX 5 9 0 0
BITMAP
28
50
88
88
88
88
88
88
70
ENDCHAR
STARTCHAR uhungarumlaut
ENCODING 369
SWIDTH 523 0
DWIDTH 6 0
BBX 5 8 0 0
BITMAP
28
50
00
88
88
88
98
68
ENDCHAR
STARTCHAR Uogonek
ENCODING 370
SWIDTH 523 0
DWIDTH 6 0
BBX 5 9 0 -2
BITMAP
88
88
88
88
88
88
70
20
10
ENDCHAR
STARTCHAR uogonek
ENCODING 371
SWIDTH 523 0
DWIDTH 6 0
BBX 5 7 0 -2
BITMAP
88
88
88
98
68
20
10
ENDCHAR
STARTCHAR Wcircumflex
ENCODING 372
SWIDTH 523 0
DWIDTH 6 0
BBX 5 9 0 0
BITMAP
20
50
88
88
88
88
A8
D8
88
ENDCHAR
STARTCHAR wcircumflex
ENCODING 373
SWIDTH 523 0
DWIDTH 6 0
BBX 5 8 0 0
BITMAP
20
50
00
A8
A8
A8
A8
50
ENDCHAR
STARTCHAR Ycircumflex
ENCODING 374
SWIDTH 523 0
DWIDTH 6 0
BBX 5 9 0 0
BITMAP
20
50
88
88
88
50
20
20
20
ENDCHAR
STARTCHAR ycircumflex
ENCODING 375
SWIDTH 523 0
DWIDTH 6 0
BBX 5 10 0 -2
BITMAP
20
50
00
88
88
88
88
78
08
70
ENDCHAR
STARTCHAR Ydieresis
ENCODING 376
SWIDTH 523 0
DWIDTH 6 0
BBX 5 9 0 0
BITMAP
50
00
88
88
88
50
20
20
20
ENDCHAR
STARTCHAR Zacute
ENCODING 377
SWIDTH 523 0
DWIDTH 6 0
BBX 5 9 0 0
BITMAP
10
20
F8
08
10
20
40
80
F8
ENDCHAR
STARTCHAR zacute
ENCODING 378
SWIDTH 523 0
DWIDTH 6 0
BBX 5 8 0 0
BITMAP
10
20
00
F8
10
20
40
F8
ENDCHAR
STARTCHAR Zdotaccent
ENCODING 379
SWIDTH 523 0
DWIDTH 6 0
BBX 5 9 0 0
BITMAP
20
00
F8
08
10
20
40
80
F8
ENDCHAR
STARTCHAR zdotaccent
ENCODING 380
SWIDTH 523 0
DWIDTH 6 0
BBX 5 7 0 0
BITMAP
20
00
F8
10
20
40
F8
ENDCHAR
STARTCHAR Zcaron
ENCODING 381
SWIDTH 523 0
DWIDTH 6 0
BBX 5 9 0 0
BITMAP
50
20
F8
08
10
20
40
80
F8
ENDCHAR
STARTCHAR zcaron
ENCODING 382
SWIDTH 523 0
DWIDTH 6 0
BBX 5 8 0 0
BITMAP
50
20
00
F8
10
20
40
F8
ENDCHAR
STARTCHAR slong
ENCODING 383
SWIDTH 523 0
DWIDTH 6 0
BBX 4 7 1 0
BITMAP
30
40
C0
40
40
40
40
ENDCHAR
STARTCHAR uni0180
ENCODING 384
SWIDTH 523 0
DWIDTH 6 0
BBX 6 7 -1 0
BITMAP
F0
40
78
44
44
44
78
ENDCHAR
STARTCHAR uni0181
ENCODING 385
SWIDTH 523 0
DWIDTH 6 0
BBX 6 7 -1 0
BITMAP
F8
44
44
78
44
44
78
ENDCHAR
STARTCHAR Btopbar
ENCODING 386
SWIDTH 523 0
DWIDTH 6 0
BBX 6 8 0 0
BITMAP
F8
88
80
F8
84
84
84
F8
ENDCHAR
STARTCHAR btopbar
ENCODING 387
SWIDTH 523 0
DWIDTH 6 0
BBX 5 8 0 0
BITMAP
F0
90
80
F0
88
88
88
F0
ENDCHAR
STARTCHAR uni0184
ENCODING 388
SWIDTH 523 0
DWIDTH 6 0
BBX 8 8 -2 0
BITMAP
60
E0
60
3E
21
21
21
3E
ENDCHAR
STARTCHAR uni0185
ENCODING 389
SWIDTH 523 0
DWIDTH 6 0
BBX 7 8 -2 0
BITMAP
60
E0
60
3C
22
22
22
3C
ENDCHAR
STARTCHAR uni0186
ENCODING 390
SWIDTH 523 0
DWIDTH 6 0
BBX 5 7 0 0
BITMAP
70
88
08
08
08
88
70
ENDCHAR
STARTCHAR uni0187
ENCODING 391
SWIDTH 523 0
DWIDTH 6 0
BBX 6 7 0 0
BITMAP
74
88
80
80
80
88
70
ENDCHAR
STARTCHAR uni0188
ENCODING 392
SWIDTH 523 0
DWIDTH 6 0
BBX 6 9 0 0
BITMAP
0C
0C
04
08
70
88
80
80
78
ENDCHAR
STARTCHAR Dafrican
ENCODING 393
SWIDTH 523 0
DWIDTH 6 0
BBX 6 7 -1 0
BITMAP
78
44
44
F4
44
44
78
ENDCHAR
STARTCHAR uni018A
ENCODING 394
SWIDTH 523 0
DWIDTH 6 0
BBX 7 7 -2 0
BITMAP
7C
A2
22
22
22
22
3C
ENDCHAR
STARTCHAR Dtopbar
ENCODING 395
SWIDTH 523 0
DWIDTH 6 0
BBX 6 8 0 0
BITMAP
7C
44
04
7C
84
84
84
7C
ENDCHAR
STARTCHAR dtopbar
ENCODING 396
SWIDTH 523 0
DWIDTH 6 0
BBX 5 8 0 0
BITMAP
78
48
08
78
88
88
88
78
ENDCHAR
STARTCHAR Ereversed
ENCODING 398
SWIDTH 523 0
DWIDTH 6 0
BBX 6 7 -1 0
BITMAP
7C
44
84
3C
04
04
7C
ENDCHAR
STARTCHAR Schwa
ENCODING 399
SWIDTH 523 0
DWIDTH 6 0
BBX 5 7 0 0
BITMAP
70
88
08
F8
88
88
70
ENDCHAR
STARTCHAR uni0190
ENCODING 400
SWIDTH 523 0
DWIDTH 6 0
BBX 5 7 0 0
BITMAP
70
88
80
70
80
88
70
ENDCHAR
STARTCHAR florin
ENCODING 402
SWIDTH 523 0
DWIDTH 6 0
BBX 5 10 0 -1
BITMAP
18
20
20
20
70
20
20
20
20
C0
ENDCHAR
STARTCHAR uni0193
ENCODING 403
SWIDTH 523 0
DWIDTH 6 0
BBX 7 7 0 0
BITMAP
76
8A
80
98
88
88
70
ENDCHAR
STARTCHAR Istroke
ENCODING 407
SWIDTH 523 0
DWIDTH 6 0
BBX 3 7 1 0
BITMAP
E0
40
40
E0
40
40
E0
ENDCHAR
STARTCHAR lbar
ENCODING 410
SWIDTH 523 0
DWIDTH 6 0
BBX 3 7 1 0
BITMAP
C0
40
40
E0
40
40
60
ENDCHAR
STARTCHAR nlegrightlong
ENCODING 414
SWIDTH 523 0
DWIDTH 6 0
BBX 5 8 0 -3
BITMAP
B0
C8
88
88
88
08
08
10
ENDCHAR
STARTCHAR Ocenteredtilde
ENCODING 415
SWIDTH 523 0
DWIDTH 6 0
BBX 5 5 0 1
BITMAP
70
88
F8
88
70
ENDCHAR
STARTCHAR Ohorn
ENCODING 416
SWIDTH 523 0
DWIDTH 6 0
BBX 6 10 0 0
BITMAP
0C
0C
04
78
88
88
88
88
88
70
ENDCHAR
STARTCHAR ohorn
ENCODING 417
SWIDTH 523 0
DWIDTH 6 0
BBX 6 9 0 0
BITMAP
0C
0C
04
08
70
88
88
88
70
ENDCHAR
STARTCHAR uni01A2
ENCODING 418
SWIDTH 523 0
DWIDTH 6 0
BBX 7 7 0 0
BITMAP
74
8A
8A
8A
8A
8A
72
ENDCHAR
STARTCHAR uni01A3
ENCODING 419
SWIDTH 523 0
DWIDTH 6 0
BBX 7 5 0 0
BITMAP
74
8A
8A
8A
72
ENDCHAR
STARTCHAR uni01A4
ENCODING 420
SWIDTH 523 0
DWIDTH 6 0
BBX 7 7 -2 0
BITMAP
FC
A2
22
3C
20
20
20
ENDCHAR
STARTCHAR uni01A5
ENCODING 421
SWIDTH 523 0
DWIDTH 6 0
BBX 7 9 0 -2
BITMAP
06
0A
F0
88
88
88
F0
80
80
ENDCHAR
STARTCHAR Tonetwo
ENCODING 423
SWIDTH 523 0
DWIDTH 6 0
BBX 5 7 0 0
BITMAP
70
88
08
70
80
88
70
ENDCHAR
STARTCHAR tonetwo
ENCODING 424
SWIDTH 523 0
DWIDTH 6 0
BBX 5 5 0 0
BITMAP
F0
08
70
80
78
ENDCHAR
STARTCHAR Esh
ENCODING 425
SWIDTH 523 0
DWIDTH 6 0
BBX 5 7 0 0
BITMAP
F8
80
40
20
40
80
F8
ENDCHAR
STARTCHAR uni01AB
ENCODING 427
SWIDTH 523 0
DWIDTH 6 0
BBX 5 9 1 -2
BITMAP
40
40
F0
40
40
40
30
08
10
ENDCHAR
STARTCHAR uni01AC
ENCODING 428
SWIDTH 523 0
DWIDTH 6 0
BBX 5 7 0 0
BITMAP
F8
28
20
20
20
20
20
ENDCHAR
STARTCHAR uni01AE
ENCODING 430
SWIDTH 523 0
DWIDTH 6 0
BBX 5 7 0 0
BITMAP
F8
A8
20
20
20
20
20
ENDCHAR
STARTCHAR uni01D7
ENCODING 471
SWIDTH 523 0
DWIDTH 6 0
BBX 5 9 0 0
BITMAP
50
00
88
88
88
88
88
88
70
ENDCHAR
STARTCHAR uni01D9
ENCODING 473
SWIDTH 523 0
DWIDTH 6 0
BBX 5 12 0 0
BITMAP
50
20
00
50
00
88
88
88
88
88
88
70
ENDCHAR
STARTCHAR uni01DB
ENCODING 475
SWIDTH 523 0
DWIDTH 6 0
BBX 5 12 0 0
BITMAP
20
10
00
50
00
88
88
88
88
88
88
70
ENDCHAR
STARTCHAR uni01DE
ENCODING 478
SWIDTH 523 0
DWIDTH 6 0
BBX 5 11 0 0
BITMAP
70
00
50
00
70
88
88
F8
88
88
88
ENDCHAR
STARTCHAR uni01E0
ENCODING 480
SWIDTH 523 0
DWIDTH 6 0
BBX 5 11 0 0
BITMAP
70
00
40
00
70
88
88
F8
88
88
88
ENDCHAR
STARTCHAR arrowheadleftmod
ENCODING 706
SWIDTH 523 0
DWIDTH 6 0
BBX 6 5 0 1
BITMAP
0C
30
C0
30
0C
ENDCHAR
STARTCHAR arrowheadrightmod
ENCODING 707
SWIDTH 523 0
DWIDTH 6 0
BBX 6 5 0 1
BITMAP
C0
30
0C
30
C0
ENDCHAR
STARTCHAR arrowheadupmod
ENCODING 708
SWIDTH 523 0
DWIDTH 6 0
BBX 5 6 0 1
BITMAP
88
88
50
50
20
20
ENDCHAR
STARTCHAR arrowheaddownmod
ENCODING 709
SWIDTH 523 0
DWIDTH 6 0
BBX 5 6 0 1
BITMAP
20
20
50
50
88
88
ENDCHAR
STARTCHAR circumflex
ENCODING 710
SWIDTH 523 0
DWIDTH 6 0
BBX 5 3 0 5
BITMAP
20
50
88
ENDCHAR
STARTCHAR caron
ENCODING 711
SWIDTH 523 0
DWIDTH 6 0
BBX 5 3 0 6
BITMAP
88
50
20
ENDCHAR
STARTCHAR verticallinemod
ENCODING 712
SWIDTH 523 0
DWIDTH 6 0
BBX 1 2 2 5
BITMAP
80
80
ENDCHAR
STARTCHAR firsttonechinese
ENCODING 713
SWIDTH 523 0
DWIDTH 6 0
BBX 2 1 1 6
BITMAP
C0
ENDCHAR
STARTCHAR secondtonechinese
ENCODING 714
SWIDTH 523 0
DWIDTH 6 0
BBX 2 2 2 5
BITMAP
40
80
ENDCHAR
STARTCHAR fourthtonechinese
ENCODING 715
SWIDTH 523 0
DWIDTH 6 0
BBX 2 2 2 5
BITMAP
80
40
ENDCHAR
STARTCHAR breve
ENCODING 728
SWIDTH 523 0
DWIDTH 6 0
BBX 5 2 1 6
BITMAP
88
70
ENDCHAR
STARTCHAR dotaccent
ENCODING 729
SWIDTH 523 0
DWIDTH 6 0
BBX 2 2 2 7
BITMAP
C0
C0
ENDCHAR
STARTCHAR ring
ENCODING 730
SWIDTH 523 0
DWIDTH 6 0
BBX 3 3 1 5
BITMAP
40
A0
40
ENDCHAR
STARTCHAR ogonek
ENCODING 731
SWIDTH 523 0
DWIDTH 6 0
BBX 2 3 2 -2
BITMAP
40
80
40
ENDCHAR
STARTCHAR tilde
ENCODING 732
SWIDTH 523 0
DWIDTH 6 0
BBX 5 2 0 6
BITMAP
68
B0
ENDCHAR
STARTCHAR hungarumlaut
ENCODING 733
SWIDTH 523 0
DWIDTH 6 0
BBX 4 3 1 6
BITMAP
50
50
A0
ENDCHAR
STARTCHAR uni02EE
ENCODING 750
SWIDTH 523 0
DWIDTH 6 0
BBX 5 4 0 3
BITMAP
D8
D8
48
90
ENDCHAR
STARTCHAR uni0343
ENCODING 835
SWIDTH 523 0
DWIDTH 6 0
BBX 2 4 1 3
BITMAP
C0
C0
40
80
ENDCHAR
STARTCHAR uni037F
ENCODING 895
SWIDTH 523 0
DWIDTH 6 0
BBX 6 3 0 1
BITMAP
FC
FC
FC
ENDCHAR
STARTCHAR uni0380
ENCODING 896
SWIDTH 523 0
DWIDTH 6 0
BBX 6 3 0 1
BITMAP
A8
54
A8
ENDCHAR
STARTCHAR uni0381
ENCODING 897
SWIDTH 523 0
DWIDTH 6 0
BBX 5 3 0 1
BITMAP
A8
00
A8
ENDCHAR
STARTCHAR Omegagreek
ENCODING 937
SWIDTH 523 0
DWIDTH 6 0
BBX 5 7 0 0
BITMAP
70
88
88
88
88
50
D8
ENDCHAR
STARTCHAR char923
ENCODING 955
SWIDTH 436 0
DWIDTH 5 0
BBX 5 8 0 0
BITMAP
40
40
20
20
50
50
88
88
ENDCHAR
STARTCHAR pi
ENCODING 960
SWIDTH 523 0
DWIDTH 6 0
BBX 5 5 0 0
BITMAP
F8
50
50
50
50
ENDCHAR
STARTCHAR Iocyrillic
ENCODING 1025
SWIDTH 523 0
DWIDTH 6 0
BBX 5 9 0 0
BITMAP
50
00
F8
80
80
F0
80
80
F8
ENDCHAR
STARTCHAR Djecyrillic
ENCODING 1026
SWIDTH 523 0
DWIDTH 6 0
BBX 5 8 0 -1
BITMAP
F0
40
70
48
48
48
48
10
ENDCHAR
STARTCHAR Gjecyrillic
ENCODING 1027
SWIDTH 523 0
DWIDTH 6 0
BBX 4 9 1 0
BITMAP
20
40
F0
80
80
80
80
80
80
ENDCHAR
STARTCHAR Ecyrillic
ENCODING 1028
SWIDTH 523 0
DWIDTH 6 0
BBX 5 7 0 0
BITMAP
70
88
80
E0
80
88
70
ENDCHAR
STARTCHAR Dzecyrillic
ENCODING 1029
SWIDTH 523 0
DWIDTH 6 0
BBX 5 7 0 0
BITMAP
70
88
80
70
08
88
70
ENDCHAR
STARTCHAR Icyrillic
ENCODING 1030
SWIDTH 523 0
DWIDTH 6 0
BBX 1 7 2 0
BITMAP
80
80
80
80
80
80
80
ENDCHAR
STARTCHAR Yicyrillic
ENCODING 1031
SWIDTH 523 0
DWIDTH 6 0
BBX 3 9 1 0
BITMAP
A0
00
40
40
40
40
40
40
40
ENDCHAR
STARTCHAR Jecyrillic
ENCODING 1032
SWIDTH 523 0
DWIDTH 6 0
BBX 5 7 0 0
BITMAP
08
08
08
08
88
88
70
ENDCHAR
STARTCHAR Ljecyrillic
ENCODING 1033
SWIDTH 523 0
DWIDTH 6 0
BBX 6 7 0 0
BITMAP
30
50
50
58
54
54
98
ENDCHAR
STARTCHAR Njecyrillic
ENCODING 1034
SWIDTH 523 0
DWIDTH 6 0
BBX 5 7 0 0
BITMAP
A0
A0
A0
F0
A8
A8
B0
ENDCHAR
STARTCHAR Tshecyrillic
ENCODING 1035
SWIDTH 523 0
DWIDTH 6 0
BBX 5 7 0 0
BITMAP
F0
40
70
48
48
48
48
ENDCHAR
STARTCHAR Kjecyrillic
ENCODING 1036
SWIDTH 523 0
DWIDTH 6 0
BBX 5 9 0 0
BITMAP
10
20
88
90
A0
C0
A0
90
88
ENDCHAR
STARTCHAR Ushortcyrillic
ENCODING 1038
SWIDTH 523 0
DWIDTH 6 0
BBX 5 9 0 0
BITMAP
50
20
88
88
88
78
08
88
70
ENDCHAR
STARTCHAR Dzhecyrillic
ENCODING 1039
SWIDTH 523 0
DWIDTH 6 0
BBX 5 9 0 -2
BITMAP
88
88
88
88
88
88
F8
20
20
ENDCHAR
STARTCHAR Acyrillic
ENCODING 1040
SWIDTH 523 0
DWIDTH 6 0
BBX 5 7 0 0
BITMAP
70
88
88
F8
88
88
88
ENDCHAR
STARTCHAR Becyrillic
ENCODING 1041
SWIDTH 523 0
DWIDTH 6 0
BBX 5 7 0 0
BITMAP
F0
80
80
F0
88
88
F0
ENDCHAR
STARTCHAR Vecyrillic
ENCODING 1042
SWIDTH 523 0
DWIDTH 6 0
BBX 5 7 0 0
BITMAP
F0
88
88
F0
88
88
F0
ENDCHAR
STARTCHAR Gecyrillic
ENCODING 1043
SWIDTH 523 0
DWIDTH 6 0
BBX 4 7 1 0
BITMAP
F0
80
80
80
80
80
80
ENDCHAR
STARTCHAR Decyrillic
ENCODING 1044
SWIDTH 523 0
DWIDTH 6 0
BBX 6 9 0 -2
BITMAP
38
48
48
48
48
48
FC
84
84
ENDCHAR
STARTCHAR Iecyrillic
ENCODING 1045
SWIDTH 523 0
DWIDTH 6 0
BBX 5 7 0 0
BITMAP
F8
80
80
F0
80
80
F8
ENDCHAR
STARTCHAR Zhecyrillic
ENCODING 1046
SWIDTH 523 0
DWIDTH 6 0
BBX 5 7 0 0
BITMAP
A8
A8
A8
70
A8
A8
A8
ENDCHAR
STARTCHAR Zecyrillic
ENCODING 1047
SWIDTH 523 0
DWIDTH 6 0
BBX 5 7 0 0
BITMAP
70
88
08
30
08
88
70
ENDCHAR
STARTCHAR Iicyrillic
ENCODING 1048
SWIDTH 523 0
DWIDTH 6 0
BBX 5 7 0 0
BITMAP
88
88
98
A8
C8
88
88
ENDCHAR
STARTCHAR Iishortcyrillic
ENCODING 1049
SWIDTH 523 0
DWIDTH 6 0
BBX 5 9 0 0
BITMAP
50
20
88
88
98
A8
C8
88
88
ENDCHAR
STARTCHAR Kacyrillic
ENCODING 1050
SWIDTH 523 0
DWIDTH 6 0
BBX 5 7 0 0
BITMAP
88
90
A0
C0
A0
90
88
ENDCHAR
STARTCHAR Elcyrillic
ENCODING 1051
SWIDTH 523 0
DWIDTH 6 0
BBX 5 7 0 0
BITMAP
38
48
48
48
48
48
88
ENDCHAR
STARTCHAR Emcyrillic
ENCODING 1052
SWIDTH 523 0
DWIDTH 6 0
BBX 5 7 0 0
BITMAP
88
D8
A8
88
88
88
88
ENDCHAR
STARTCHAR Encyrillic
ENCODING 1053
SWIDTH 523 0
DWIDTH 6 0
BBX 5 7 0 0
BITMAP
88
88
88
F8
88
88
88
ENDCHAR
STARTCHAR Ocyrillic
ENCODING 1054
SWIDTH 523 0
DWIDTH 6 0
BBX 5 7 0 0
BITMAP
70
88
88
88
88
88
70
ENDCHAR
STARTCHAR Pecyrillic
ENCODING 1055
SWIDTH 523 0
DWIDTH 6 0
BBX 5 7 0 0
BITMAP
F8
88
88
88
88
88
88
ENDCHAR
STARTCHAR Ercyrillic
ENCODING 1056
SWIDTH 523 0
DWIDTH 6 0
BBX 5 7 0 0
BITMAP
F0
88
88
F0
80
80
80
ENDCHAR
STARTCHAR Escyrillic
ENCODING 1057
SWIDTH 523 0
DWIDTH 6 0
BBX 5 7 0 0
BITMAP
70
88
80
80
80
88
70
ENDCHAR
STARTCHAR Tecyrillic
ENCODING 1058
SWIDTH 523 0
DWIDTH 6 0
BBX 5 7 0 0
BITMAP
F8
20
20
20
20
20
20
ENDCHAR
STARTCHAR Ucyrillic
ENCODING 1059
SWIDTH 523 0
DWIDTH 6 0
BBX 5 7 0 0
BITMAP
88
88
88
78
08
88
70
ENDCHAR
STARTCHAR Efcyrillic
ENCODING 1060
SWIDTH 523 0
DWIDTH 6 0
BBX 5 7 0 0
BITMAP
20
70
A8
A8
A8
70
20
ENDCHAR
STARTCHAR Khacyrillic
ENCODING 1061
SWIDTH 523 0
DWIDTH 6 0
BBX 5 7 0 0
BITMAP
88
50
20
20
20
50
88
ENDCHAR
STARTCHAR Tsecyrillic
ENCODING 1062
SWIDTH 523 0
DWIDTH 6 0
BBX 6 9 0 -2
BITMAP
88
88
88
88
88
88
FC
04
04
ENDCHAR
STARTCHAR Checyrillic
ENCODING 1063
SWIDTH 523 0
DWIDTH 6 0
BBX 5 7 0 0
BITMAP
88
88
88
78
08
08
08
ENDCHAR
STARTCHAR Shacyrillic
ENCODING 1064
SWIDTH 523 0
DWIDTH 6 0
BBX 5 7 0 0
BITMAP
A8
A8
A8
A8
A8
A8
F8
ENDCHAR
STARTCHAR Shchacyrillic
ENCODING 1065
SWIDTH 523 0
DWIDTH 6 0
BBX 6 9 0 -2
BITMAP
A8
A8
A8
A8
A8
A8
FC
04
04
ENDCHAR
STARTCHAR Hardsigncyrillic
ENCODING 1066
SWIDTH 523 0
DWIDTH 6 0
BBX 5 7 0 0
BITMAP
C0
40
40
70
48
48
70
ENDCHAR
STARTCHAR Yericyrillic
ENCODING 1067
SWIDTH 523 0
DWIDTH 6 0
BBX 5 7 0 0
BITMAP
88
88
88
E8
98
98
E8
ENDCHAR
STARTCHAR Softsigncyrillic
ENCODING 1068
SWIDTH 523 0
DWIDTH 6 0
BBX 5 7 0 0
BITMAP
80
80
80
F0
88
88
F0
ENDCHAR
STARTCHAR Ereversedcyrillic
ENCODING 1069
SWIDTH 523 0
DWIDTH 6 0
BBX 5 7 0 0
BITMAP
70
88
08
78
08
88
70
ENDCHAR
STARTCHAR IUcyrillic
ENCODING 1070
SWIDTH 523 0
DWIDTH 6 0
BBX 5 7 0 0
BITMAP
90
A8
A8
E8
A8
A8
90
ENDCHAR
STARTCHAR IAcyrillic
ENCODING 1071
SWIDTH 523 0
DWIDTH 6 0
BBX 5 7 0 0
BITMAP
38
48
48
38
28
48
88
ENDCHAR
STARTCHAR acyrillic
ENCODING 1072
SWIDTH 523 0
DWIDTH 6 0
BBX 5 5 0 0
BITMAP
78
88
88
98
68
ENDCHAR
STARTCHAR becyrillic
ENCODING 1073
SWIDTH 523 0
DWIDTH 6 0
BBX 5 8 0 0
BITMAP
08
70
80
F0
88
88
88
70
ENDCHAR
STARTCHAR vecyrillic
ENCODING 1074
SWIDTH 523 0
DWIDTH 6 0
BBX 5 5 0 0
BITMAP
F0
88
F0
88
F0
ENDCHAR
STARTCHAR gecyrillic
ENCODING 1075
SWIDTH 523 0
DWIDTH 6 0
BBX 4 5 1 0
BITMAP
F0
80
80
80
80
ENDCHAR
STARTCHAR decyrillic
ENCODING 1076
SWIDTH 523 0
DWIDTH 6 0
BBX 6 7 0 -2
BITMAP
38
48
48
48
FC
84
84
ENDCHAR
STARTCHAR iecyrillic
ENCODING 1077
SWIDTH 523 0
DWIDTH 6 0
BBX 5 5 0 0
BITMAP
70
88
F8
80
78
ENDCHAR
STARTCHAR zhecyrillic
ENCODING 1078
SWIDTH 523 0
DWIDTH 6 0
BBX 5 5 0 0
BITMAP
A8
A8
70
A8
A8
ENDCHAR
STARTCHAR zecyrillic
ENCODING 1079
SWIDTH 523 0
DWIDTH 6 0
BBX 5 5 0 0
BITMAP
70
88
30
88
70
ENDCHAR
STARTCHAR iicyrillic
ENCODING 1080
SWIDTH 523 0
DWIDTH 6 0
BBX 5 5 0 0
BITMAP
88
98
A8
C8
88
ENDCHAR
STARTCHAR iishortcyrillic
ENCODING 1081
SWIDTH 523 0
DWIDTH 6 0
BBX 5 7 0 0
BITMAP
50
20
88
98
A8
C8
88
ENDCHAR
STARTCHAR kacyrillic
ENCODING 1082
SWIDTH 523 0
DWIDTH 6 0
BBX 5 5 0 0
BITMAP
88
90
E0
90
88
ENDCHAR
STARTCHAR elcyrillic
ENCODING 1083
SWIDTH 523 0
DWIDTH 6 0
BBX 5 5 0 0
BITMAP
38
48
48
48
88
ENDCHAR
STARTCHAR emcyrillic
ENCODING 1084
SWIDTH 523 0
DWIDTH 6 0
BBX 5 5 0 0
BITMAP
88
D8
A8
88
88
ENDCHAR
STARTCHAR encyrillic
ENCODING 1085
SWIDTH 523 0
DWIDTH 6 0
BBX 5 5 0 0
BITMAP
88
88
F8
88
88
ENDCHAR
STARTCHAR ocyrillic
ENCODING 1086
SWIDTH 523 0
DWIDTH 6 0
BBX 5 5 0 0
BITMAP
70
88
88
88
70
ENDCHAR
STARTCHAR pecyrillic
ENCODING 1087
SWIDTH 523 0
DWIDTH 6 0
BBX 5 5 0 0
BITMAP
F8
88
88
88
88
ENDCHAR
STARTCHAR ercyrillic
ENCODING 1088
SWIDTH 523 0
DWIDTH 6 0
BBX 5 7 0 -2
BITMAP
F0
88
88
88
F0
80
80
ENDCHAR
STARTCHAR escyrillic
ENCODING 1089
SWIDTH 523 0
DWIDTH 6 0
BBX 5 5 0 0
BITMAP
70
88
80
88
70
ENDCHAR
STARTCHAR tecyrillic
ENCODING 1090
SWIDTH 523 0
DWIDTH 6 0
BBX 5 5 0 0
BITMAP
F8
20
20
20
20
ENDCHAR
STARTCHAR ucyrillic
ENCODING 1091
SWIDTH 523 0
DWIDTH 6 0
BBX 5 7 0 -2
BITMAP
88
88
88
88
78
08
70
ENDCHAR
STARTCHAR efcyrillic
ENCODING 1092
SWIDTH 523 0
DWIDTH 6 0
BBX 5 9 0 -2
BITMAP
20
20
70
A8
A8
A8
70
20
20
ENDCHAR
STARTCHAR khacyrillic
ENCODING 1093
SWIDTH 523 0
DWIDTH 6 0
BBX 5 5 0 0
BITMAP
88
50
20
50
88
ENDCHAR
STARTCHAR tsecyrillic
ENCODING 1094
SWIDTH 523 0
DWIDTH 6 0
BBX 6 7 0 -2
BITMAP
88
88
88
88
FC
04
04
ENDCHAR
STARTCHAR checyrillic
ENCODING 1095
SWIDTH 523 0
DWIDTH 6 0
BBX 5 5 0 0
BITMAP
88
88
78
08
08
ENDCHAR
STARTCHAR shacyrillic
ENCODING 1096
SWIDTH 523 0
DWIDTH 6 0
BBX 5 5 0 0
BITMAP
A8
A8
A8
A8
F8
ENDCHAR
STARTCHAR shchacyrillic
ENCODING 1097
SWIDTH 523 0
DWIDTH 6 0
BBX 6 7 0 -2
BITMAP
A8
A8
A8
A8
FC
04
04
ENDCHAR
STARTCHAR hardsigncyrillic
ENCODING 1098
SWIDTH 523 0
DWIDTH 6 0
BBX 5 5 0 0
BITMAP
C0
40
70
48
70
ENDCHAR
STARTCHAR yericyrillic
ENCODING 1099
SWIDTH 523 0
DWIDTH 6 0
BBX 5 5 0 0
BITMAP
88
88
E8
98
E8
ENDCHAR
STARTCHAR softsigncyrillic
ENCODING 1100
SWIDTH 523 0
DWIDTH 6 0
BBX 5 5 0 0
BITMAP
80
80
F0
88
F0
ENDCHAR
STARTCHAR ereversedcyrillic
ENCODING 1101
SWIDTH 523 0
DWIDTH 6 0
BBX 5 5 0 0
BITMAP
F0
08
78
08
F0
ENDCHAR
STARTCHAR iucyrillic
ENCODING 1102
SWIDTH 523 0
DWIDTH 6 0
BBX 5 5 0 0
BITMAP
90
A8
E8
A8
90
ENDCHAR
STARTCHAR iacyrillic
ENCODING 1103
SWIDTH 523 0
DWIDTH 6 0
BBX 5 5 0 0
BITMAP
78
88
78
48
88
ENDCHAR
STARTCHAR iocyrillic
ENCODING 1105
SWIDTH 523 0
DWIDTH 6 0
BBX 5 7 0 0
BITMAP
50
00
70
88
F8
80
78
ENDCHAR
STARTCHAR djecyrillic
ENCODING 1106
SWIDTH 523 0
DWIDTH 6 0
BBX 5 8 0 -1
BITMAP
40
40
F0
40
70
48
48
10
ENDCHAR
STARTCHAR gjecyrillic
ENCODING 1107
SWIDTH 523 0
DWIDTH 6 0
BBX 4 8 1 0
BITMAP
20
40
00
F0
80
80
80
80
ENDCHAR
STARTCHAR ecyrillic
ENCODING 1108
SWIDTH 523 0
DWIDTH 6 0
BBX 5 5 0 0
BITMAP
70
88
E0
80
78
ENDCHAR
STARTCHAR dzecyrillic
ENCODING 1109
SWIDTH 523 0
DWIDTH 6 0
BBX 5 5 0 0
BITMAP
78
80
70
08
F0
ENDCHAR
STARTCHAR icyrillic
ENCODING 1110
SWIDTH 523 0
DWIDTH 6 0
BBX 1 7 2 0
BITMAP
80
00
80
80
80
80
80
ENDCHAR
STARTCHAR yicyrillic
ENCODING 1111
SWIDTH 523 0
DWIDTH 6 0
BBX 3 7 1 0
BITMAP
A0
00
40
40
40
40
40
ENDCHAR
STARTCHAR jecyrillic
ENCODING 1112
SWIDTH 523 0
DWIDTH 6 0
BBX 3 9 0 -2
BITMAP
20
00
20
20
20
20
20
20
C0
ENDCHAR
STARTCHAR ljecyrillic
ENCODING 1113
SWIDTH 523 0
DWIDTH 6 0
BBX 6 5 0 0
BITMAP
30
50
58
54
98
ENDCHAR
STARTCHAR njecyrillic
ENCODING 1114
SWIDTH 523 0
DWIDTH 6 0
BBX 5 5 0 0
BITMAP
A0
A0
F0
A8
B0
ENDCHAR
STARTCHAR tshecyrillic
ENCODING 1115
SWIDTH 523 0
DWIDTH 6 0
BBX 5 7 0 0
BITMAP
40
40
F0
40
70
48
48
ENDCHAR
STARTCHAR kjecyrillic
ENCODING 1116
SWIDTH 523 0
DWIDTH 6 0
BBX 5 8 0 0
BITMAP
10
20
00
88
90
E0
90
88
ENDCHAR
STARTCHAR ushortcyrillic
ENCODING 1118
SWIDTH 523 0
DWIDTH 6 0
BBX 5 9 0 -2
BITMAP
50
20
88
88
88
88
78
08
70
ENDCHAR
STARTCHAR dzhecyrillic
ENCODING 1119
SWIDTH 523 0
DWIDTH 6 0
BBX 5 7 0 -2
BITMAP
88
88
88
88
F8
20
20
ENDCHAR
STARTCHAR Gheupturncyrillic
ENCODING 1168
SWIDTH 523 0
DWIDTH 6 0
BBX 4 9 1 0
BITMAP
10
10
F0
80
80
80
80
80
80
ENDCHAR
STARTCHAR gheupturncyrillic
ENCODING 1169
SWIDTH 523 0
DWIDTH 6 0
BBX 4 7 1 0
BITMAP
10
10
F0
80
80
80
80
ENDCHAR
STARTCHAR uni07F8
ENCODING 2040
SWIDTH 523 0
DWIDTH 6 0
BBX 6 4 0 -2
BITMAP
FC
FC
FC
FC
ENDCHAR
STARTCHAR uni07F9
ENCODING 2041
SWIDTH 523 0
DWIDTH 6 0
BBX 6 4 0 -2
BITMAP
54
A8
54
A8
ENDCHAR
STARTCHAR uni07FA
ENCODING 2042
SWIDTH 523 0
DWIDTH 6 0
BBX 5 9 0 -2
BITMAP
A8
00
A8
00
A8
00
A8
00
A8
ENDCHAR
STARTCHAR uni0CA0
ENCODING 3232
SWIDTH 523 0
DWIDTH 6 0
BBX 6 7 0 0
BITMAP
18
04
F8
44
54
44
38
ENDCHAR
STARTCHAR hyphentwo
ENCODING 8208
SWIDTH 523 0
DWIDTH 6 0
BBX 3 1 1 3
BITMAP
E0
ENDCHAR
STARTCHAR nonbreakinghyphen
ENCODING 8209
SWIDTH 523 0
DWIDTH 6 0
BBX 3 1 1 3
BITMAP
E0
ENDCHAR
STARTCHAR figuredash
ENCODING 8210
SWIDTH 523 0
DWIDTH 6 0
BBX 4 1 1 3
BITMAP
F0
ENDCHAR
STARTCHAR endash
ENCODING 8211
SWIDTH 523 0
DWIDTH 6 0
BBX 4 1 1 3
BITMAP
F0
ENDCHAR
STARTCHAR emdash
ENCODING 8212
SWIDTH 523 0
DWIDTH 6 0
BBX 6 1 0 3
BITMAP
FC
ENDCHAR
STARTCHAR horizontalbar
ENCODING 8213
SWIDTH 523 0
DWIDTH 6 0
BBX 7 1 0 3
BITMAP
FE
ENDCHAR
STARTCHAR underscoredbl
ENCODING 8215
SWIDTH 523 0
DWIDTH 6 0
BBX 5 1 0 0
BITMAP
F8
ENDCHAR
STARTCHAR quoteleft
ENCODING 8216
SWIDTH 523 0
DWIDTH 6 0
BBX 2 3 2 4
BITMAP
40
80
C0
ENDCHAR
STARTCHAR quoteright
ENCODING 8217
SWIDTH 523 0
DWIDTH 6 0
BBX 2 3 2 4
BITMAP
C0
40
80
ENDCHAR
STARTCHAR quotesinglbase
ENCODING 8218
SWIDTH 523 0
DWIDTH 6 0
BBX 2 4 2 -2
BITMAP
C0
C0
40
80
ENDCHAR
STARTCHAR quoteleftreversed
ENCODING 8219
SWIDTH 523 0
DWIDTH 6 0
BBX 2 3 2 4
BITMAP
C0
80
40
ENDCHAR
STARTCHAR quotedblleft
ENCODING 8220
SWIDTH 523 0
DWIDTH 6 0
BBX 4 3 1 4
BITMAP
50
A0
F0
ENDCHAR
STARTCHAR quotedblright
ENCODING 8221
SWIDTH 523 0
DWIDTH 6 0
BBX 4 3 1 4
BITMAP
F0
50
A0
ENDCHAR
STARTCHAR quotedblbase
ENCODING 8222
SWIDTH 523 0
DWIDTH 6 0
BBX 4 3 1 -1
BITMAP
F0
50
A0
ENDCHAR
STARTCHAR quotedblleftaltone
ENCODING 8223
SWIDTH 523 0
DWIDTH 6 0
BBX 4 3 1 4
BITMAP
F0
A0
50
ENDCHAR
STARTCHAR dagger
ENCODING 8224
SWIDTH 523 0
DWIDTH 6 0
BBX 3 6 1 1
BITMAP
40
E0
40
40
40
40
ENDCHAR
STARTCHAR daggerdbl
ENCODING 8225
SWIDTH 523 0
DWIDTH 6 0
BBX 3 9 1 -2
BITMAP
40
40
E0
40
40
40
E0
40
40
ENDCHAR
STARTCHAR bullet
ENCODING 8226
SWIDTH 523 0
DWIDTH 6 0
BBX 5 5 0 1
BITMAP
70
F8
F8
F8
70
ENDCHAR
STARTCHAR uni2023
ENCODING 8227
SWIDTH 523 0
DWIDTH 6 0
BBX 6 6 0 0
BITMAP
C0
F0
FC
FC
F0
C0
ENDCHAR
STARTCHAR onedotleader
ENCODING 8228
SWIDTH 523 0
DWIDTH 6 0
BBX 1 1 2 0
BITMAP
80
ENDCHAR
STARTCHAR twodotleader
ENCODING 8229
SWIDTH 523 0
DWIDTH 6 0
BBX 3 1 1 0
BITMAP
A0
ENDCHAR
STARTCHAR ellipsis
ENCODING 8230
SWIDTH 523 0
DWIDTH 6 0
BBX 5 1 0 0
BITMAP
A8
ENDCHAR
STARTCHAR uni2027
ENCODING 8231
SWIDTH 523 0
DWIDTH 6 0
BBX 1 1 2 2
BITMAP
80
ENDCHAR
STARTCHAR perthousand
ENCODING 8240
SWIDTH 523 0
DWIDTH 6 0
BBX 7 7 -1 0
BITMAP
48
A8
50
20
54
AA
94
ENDCHAR
STARTCHAR uni2031
ENCODING 8241
SWIDTH 523 0
DWIDTH 6 0
BBX 9 7 -2 0
BITMAP
4800
A800
5000
2000
5500
AA80
9500
ENDCHAR
STARTCHAR guilsinglleft
ENCODING 8249
SWIDTH 523 0
DWIDTH 6 0
BBX 2 4 1 1
BITMAP
40
80
80
40
ENDCHAR
STARTCHAR guilsinglright
ENCODING 8250
SWIDTH 523 0
DWIDTH 6 0
BBX 2 4 2 1
BITMAP
80
40
40
80
ENDCHAR
STARTCHAR char8255
ENCODING 8255
SWIDTH 436 0
DWIDTH 5 0
BBX 5 2 0 0
BITMAP
88
70
ENDCHAR
STARTCHAR fraction
ENCODING 8260
SWIDTH 523 0
DWIDTH 6 0
BBX 5 9 0 -1
BITMAP
08
08
10
10
20
40
40
80
80
ENDCHAR
STARTCHAR reversedpilcrow
ENCODING 8267
SWIDTH 523 0
DWIDTH 6 0
BBX 6 8 0 0
BITMAP
F8
5C
5C
5C
78
50
50
D0
ENDCHAR
STARTCHAR Euro
ENCODING 8364
SWIDTH 523 0
DWIDTH 6 0
BBX 5 7 0 0
BITMAP
30
48
E0
40
E0
48
30
ENDCHAR
STARTCHAR numero
ENCODING 8470
SWIDTH 523 0
DWIDTH 6 0
BBX 7 7 -1 0
BITMAP
90
90
D4
FA
B4
90
9E
ENDCHAR
STARTCHAR trademark
ENCODING 8482
SWIDTH 523 0
DWIDTH 6 0
BBX 6 3 0 4
BITMAP
F4
5C
5C
ENDCHAR
STARTCHAR uni2133
ENCODING 8499
SWIDTH 523 0
DWIDTH 6 0
BBX 0 0 0 0
BITMAP
ENDCHAR
STARTCHAR uni216C
ENCODING 8556
SWIDTH 436 0
DWIDTH 5 0
BBX 4 7 1 0
BITMAP
80
80
80
80
80
80
F0
ENDCHAR
STARTCHAR arrowleft
ENCODING 8592
SWIDTH 523 0
DWIDTH 6 0
BBX 7 5 -1 1
BITMAP
20
60
FE
60
20
ENDCHAR
STARTCHAR arrowup
ENCODING 8593
SWIDTH 523 0
DWIDTH 6 0
BBX 5 7 0 0
BITMAP
20
70
F8
20
20
20
20
ENDCHAR
STARTCHAR arrowright
ENCODING 8594
SWIDTH 523 0
DWIDTH 6 0
BBX 7 5 -1 1
BITMAP
08
0C
FE
0C
08
ENDCHAR
STARTCHAR arrowdown
ENCODING 8595
SWIDTH 523 0
DWIDTH 6 0
BBX 5 7 0 0
BITMAP
20
20
20
20
F8
70
20
ENDCHAR
STARTCHAR uni21B0
ENCODING 8624
SWIDTH 523 0
DWIDTH 6 0
BBX 6 9 0 0
BITMAP
20
60
FC
64
24
04
04
04
04
ENDCHAR
STARTCHAR uni21B1
ENCODING 8625
SWIDTH 523 0
DWIDTH 6 0
BBX 6 9 0 0
BITMAP
10
18
FC
98
90
80
80
80
80
ENDCHAR
STARTCHAR uni21B2
ENCODING 8626
SWIDTH 523 0
DWIDTH 6 0
BBX 6 9 0 0
BITMAP
04
04
04
04
24
64
FC
60
20
ENDCHAR
STARTCHAR uni21B3
ENCODING 8627
SWIDTH 523 0
DWIDTH 6 0
BBX 6 9 0 -1
BITMAP
80
80
80
80
90
98
FC
18
10
ENDCHAR
STARTCHAR uni21B4
ENCODING 8628
SWIDTH 523 0
DWIDTH 6 0
BBX 5 6 0 0
BITMAP
E0
20
20
F8
70
20
ENDCHAR
STARTCHAR carriagereturn
ENCODING 8629
SWIDTH 523 0
DWIDTH 6 0
BBX 6 7 0 0
BITMAP
04
04
24
64
FC
60
20
ENDCHAR
STARTCHAR uni21B6
ENCODING 8630
SWIDTH 523 0
DWIDTH 6 0
BBX 6 6 -1 0
BITMAP
18
24
20
F8
70
20
ENDCHAR
STARTCHAR uni21B7
ENCODING 8631
SWIDTH 523 0
DWIDTH 6 0
BBX 6 6 -1 0
BITMAP
60
90
10
7C
38
10
ENDCHAR
STARTCHAR uni21F1
ENCODING 8689
SWIDTH 523 0
DWIDTH 6 0
BBX 6 6 0 0
BITMAP
FC
80
B8
B0
A8
84
ENDCHAR
STARTCHAR uni21F2
ENCODING 8690
SWIDTH 523 0
DWIDTH 6 0
BBX 6 6 0 0
BITMAP
84
54
34
74
04
FC
ENDCHAR
STARTCHAR uni21F5
ENCODING 8693
SWIDTH 523 0
DWIDTH 6 0
BBX 6 7 0 0
BITMAP
48
E8
48
48
48
5C
48
ENDCHAR
STARTCHAR uni21F6
ENCODING 8694
SWIDTH 523 0
DWIDTH 6 0
BBX 7 13 -1 -3
BITMAP
08
0C
FE
0C
08
0C
FE
0C
08
0C
FE
0C
08
ENDCHAR
STARTCHAR uni21F7
ENCODING 8695
SWIDTH 523 0
DWIDTH 6 0
BBX 7 5 -1 1
BITMAP
28
68
FE
68
28
ENDCHAR
STARTCHAR uni21F8
ENCODING 8696
SWIDTH 523 0
DWIDTH 6 0
BBX 7 5 -1 1
BITMAP
28
2C
FE
2C
28
ENDCHAR
STARTCHAR uni21F9
ENCODING 8697
SWIDTH 523 0
DWIDTH 6 0
BBX 9 5 -2 1
BITMAP
2A00
6B00
FF80
6B00
2A00
ENDCHAR
STARTCHAR uni21FA
ENCODING 8698
SWIDTH 523 0
DWIDTH 6 0
BBX 7 5 -1 1
BITMAP
2A
6A
FE
6A
2A
ENDCHAR
STARTCHAR uni21FB
ENCODING 8699
SWIDTH 523 0
DWIDTH 6 0
BBX 7 5 -1 1
BITMAP
A8
AC
FE
AC
A8
ENDCHAR
STARTCHAR uni21FD
ENCODING 8701
SWIDTH 523 0
DWIDTH 6 0
BBX 7 5 -1 1
BITMAP
20
60
FE
60
20
ENDCHAR
STARTCHAR uni21FE
ENCODING 8702
SWIDTH 523 0
DWIDTH 6 0
BBX 7 5 -1 1
BITMAP
08
0C
FE
0C
08
ENDCHAR
STARTCHAR uni21FF
ENCODING 8703
SWIDTH 523 0
DWIDTH 6 0
BBX 7 5 -1 1
BITMAP
28
6C
FE
6C
28
ENDCHAR
STARTCHAR universal
ENCODING 8704
SWIDTH 523 0
DWIDTH 6 0
BBX 5 7 0 0
BITMAP
88
88
F8
50
50
20
20
ENDCHAR
STARTCHAR uni2201
ENCODING 8705
SWIDTH 523 0
DWIDTH 6 0
BBX 5 7 0 0
BITMAP
70
88
88
80
88
88
70
ENDCHAR
STARTCHAR partialdiff
ENCODING 8706
SWIDTH 523 0
DWIDTH 6 0
BBX 4 7 1 0
BITMAP
40
20
30
50
90
90
60
ENDCHAR
STARTCHAR existential
ENCODING 8707
SWIDTH 523 0
DWIDTH 6 0
BBX 5 7 0 0
BITMAP
F8
08
08
78
08
08
F8
ENDCHAR
STARTCHAR uni2204
ENCODING 8708
SWIDTH 523 0
DWIDTH 6 0
BBX 5 11 0 -2
BITMAP
08
08
F8
18
18
78
28
28
F8
40
40
ENDCHAR
STARTCHAR emptyset
ENCODING 8709
SWIDTH 523 0
DWIDTH 6 0
BBX 7 7 -1 0
BITMAP
3A
44
4C
54
64
44
B8
ENDCHAR
STARTCHAR Delta
ENCODING 8710
SWIDTH 523 0
DWIDTH 6 0
BBX 5 6 0 0
BITMAP
20
20
50
50
88
F8
ENDCHAR
STARTCHAR gradient
ENCODING 8711
SWIDTH 523 0
DWIDTH 6 0
BBX 5 6 0 0
BITMAP
F8
88
50
50
20
20
ENDCHAR
STARTCHAR element
ENCODING 8712
SWIDTH 523 0
DWIDTH 6 0
BBX 5 7 0 0
BITMAP
38
40
80
F0
80
40
38
ENDCHAR
STARTCHAR notelement
ENCODING 8713
SWIDTH 523 0
DWIDTH 6 0
BBX 5 11 0 -2
BITMAP
08
08
38
50
90
F0
A0
60
78
40
40
ENDCHAR
STARTCHAR uni220A
ENCODING 8714
SWIDTH 523 0
DWIDTH 6 0
BBX 5 5 0 0
BITMAP
78
80
F0
80
78
ENDCHAR
STARTCHAR suchthat
ENCODING 8715
SWIDTH 523 0
DWIDTH 6 0
BBX 5 7 0 0
BITMAP
E0
10
08
78
08
10
E0
ENDCHAR
STARTCHAR uni220C
ENCODING 8716
SWIDTH 523 0
DWIDTH 6 0
BBX 5 11 0 -2
BITMAP
80
80
E0
50
48
78
28
30
F0
10
10
ENDCHAR
STARTCHAR uni220D
ENCODING 8717
SWIDTH 523 0
DWIDTH 6 0
BBX 5 5 0 0
BITMAP
F0
08
78
08
F0
ENDCHAR
STARTCHAR product
ENCODING 8719
SWIDTH 523 0
DWIDTH 6 0
BBX 6 7 0 0
BITMAP
FC
48
48
48
48
48
48
ENDCHAR
STARTCHAR uni2210
ENCODING 8720
SWIDTH 523 0
DWIDTH 6 0
BBX 6 7 0 0
BITMAP
48
48
48
48
48
48
FC
ENDCHAR
STARTCHAR summation
ENCODING 8721
SWIDTH 523 0
DWIDTH 6 0
BBX 5 7 0 0
BITMAP
F8
48
20
10
20
48
F8
ENDCHAR
STARTCHAR minus
ENCODING 8722
SWIDTH 523 0
DWIDTH 6 0
BBX 5 1 0 2
BITMAP
F8
ENDCHAR
STARTCHAR uni2213
ENCODING 8723
SWIDTH 523 0
DWIDTH 6 0
BBX 5 7 0 0
BITMAP
F8
00
20
20
F8
20
20
ENDCHAR
STARTCHAR uni2214
ENCODING 8724
SWIDTH 523 0
DWIDTH 6 0
BBX 5 9 0 0
BITMAP
20
70
20
00
20
20
F8
20
20
ENDCHAR
STARTCHAR radical
ENCODING 8730
SWIDTH 523 0
DWIDTH 6 0
BBX 7 8 -1 0
BITMAP
02
02
04
04
E8
28
10
10
ENDCHAR
STARTCHAR uni221B
ENCODING 8731
SWIDTH 523 0
DWIDTH 6 0
BBX 7 9 -1 0
BITMAP
30
12
22
14
34
C8
28
10
10
ENDCHAR
STARTCHAR uni221C
ENCODING 8732
SWIDTH 523 0
DWIDTH 6 0
BBX 7 9 -1 0
BITMAP
10
32
72
14
14
E8
28
10
10
ENDCHAR
STARTCHAR proportional
ENCODING 8733
SWIDTH 523 0
DWIDTH 6 0
BBX 4 3 0 2
BITMAP
D0
A0
D0
ENDCHAR
STARTCHAR infinity
ENCODING 8734
SWIDTH 523 0
DWIDTH 6 0
BBX 5 3 0 2
BITMAP
D8
A8
D8
ENDCHAR
STARTCHAR uni2223
ENCODING 8739
SWIDTH 523 0
DWIDTH 6 0
BBX 1 7 2 0
BITMAP
80
80
80
80
80
80
80
ENDCHAR
STARTCHAR integral
ENCODING 8747
SWIDTH 523 0
DWIDTH 6 0
BBX 5 11 0 -2
BITMAP
18
20
20
20
20
20
20
20
20
20
C0
ENDCHAR
STARTCHAR approxequal
ENCODING 8776
SWIDTH 523 0
DWIDTH 6 0
BBX 5 5 0 1
BITMAP
08
70
88
70
80
ENDCHAR
STARTCHAR uni2256
ENCODING 8790
SWIDTH 523 0
DWIDTH 6 0
BBX 5 3 0 2
BITMAP
F8
50
F8
ENDCHAR
STARTCHAR notequal
ENCODING 8800
SWIDTH 523 0
DWIDTH 6 0
BBX 5 5 0 1
BITMAP
10
F8
20
F8
40
ENDCHAR
STARTCHAR lessequal
ENCODING 8804
SWIDTH 523 0
DWIDTH 6 0
BBX 4 7 1 0
BITMAP
20
40
80
40
20
00
F0
ENDCHAR
STARTCHAR greaterequal
ENCODING 8805
SWIDTH 523 0
DWIDTH 6 0
BBX 4 7 1 0
BITMAP
40
20
10
20
40
00
F0
ENDCHAR
STARTCHAR uni2266
ENCODING 8806
SWIDTH 523 0
DWIDTH 6 0
BBX 4 9 1 -2
BITMAP
20
40
80
40
20
00
F0
00
F0
ENDCHAR
STARTCHAR uni2267
ENCODING 8807
SWIDTH 523 0
DWIDTH 6 0
BBX 4 9 1 -2
BITMAP
40
20
10
20
40
00
F0
00
F0
ENDCHAR
STARTCHAR char8853
ENCODING 8853
SWIDTH 436 0
DWIDTH 5 0
BBX 5 5 0 1
BITMAP
70
A8
F8
A8
70
ENDCHAR
STARTCHAR Delta
ENCODING 8854
SWIDTH 523 0
DWIDTH 6 0
BBX 5 5 0 1
BITMAP
70
88
F8
88
70
ENDCHAR
STARTCHAR Delta
ENCODING 8855
SWIDTH 523 0
DWIDTH 6 0
BBX 5 5 0 1
BITMAP
70
D8
A8
D8
70
ENDCHAR
STARTCHAR Delta
ENCODING 8856
SWIDTH 523 0
DWIDTH 6 0
BBX 5 5 0 1
BITMAP
70
98
A8
C8
70
ENDCHAR
STARTCHAR Delta
ENCODING 8857
SWIDTH 523 0
DWIDTH 6 0
BBX 5 5 0 1
BITMAP
70
88
A8
88
70
ENDCHAR
STARTCHAR uni2312
ENCODING 8978
SWIDTH 523 0
DWIDTH 6 0
BBX 5 2 0 3
BITMAP
70
88
ENDCHAR
STARTCHAR uni2322
ENCODING 8994
SWIDTH 523 0
DWIDTH 6 0
BBX 6 2 0 2
BITMAP
78
84
ENDCHAR
STARTCHAR uni23E9
ENCODING 9193
SWIDTH 523 0
DWIDTH 6 0
BBX 6 5 0 1
BITMAP
90
D8
FC
D8
90
ENDCHAR
STARTCHAR uni23EA
ENCODING 9194
SWIDTH 523 0
DWIDTH 6 0
BBX 6 5 0 1
BITMAP
24
6C
FC
6C
24
ENDCHAR
STARTCHAR uni23EB
ENCODING 9195
SWIDTH 523 0
DWIDTH 6 0
BBX 5 6 0 0
BITMAP
20
70
F8
20
70
F8
ENDCHAR
STARTCHAR uni23EC
ENCODING 9196
SWIDTH 523 0
DWIDTH 6 0
BBX 5 6 0 0
BITMAP
F8
70
20
F8
70
20
ENDCHAR
STARTCHAR uni23ED
ENCODING 9197
SWIDTH 523 0
DWIDTH 6 0
BBX 7 5 -1 1
BITMAP
92
DA
FE
DA
92
ENDCHAR
STARTCHAR uni23EE
ENCODING 9198
SWIDTH 523 0
DWIDTH 6 0
BBX 7 5 -1 1
BITMAP
92
B6
FE
B6
92
ENDCHAR
STARTCHAR uni23EF
ENCODING 9199
SWIDTH 523 0
DWIDTH 6 0
BBX 6 5 0 1
BITMAP
94
D4
F4
D4
94
ENDCHAR
STARTCHAR uni2596
ENCODING 9622
SWIDTH 523 0
DWIDTH 6 0
BBX 3 3 0 0
BITMAP
E0
E0
E0
ENDCHAR
STARTCHAR uni2597
ENCODING 9623
SWIDTH 523 0
DWIDTH 6 0
BBX 3 3 3 0
BITMAP
E0
E0
E0
ENDCHAR
STARTCHAR uni2598
ENCODING 9624
SWIDTH 523 0
DWIDTH 6 0
BBX 3 3 0 3
BITMAP
E0
E0
E0
ENDCHAR
STARTCHAR uni2599
ENCODING 9625
SWIDTH 523 0
DWIDTH 6 0
BBX 6 6 0 0
BITMAP
E0
E0
E0
FC
FC
FC
ENDCHAR
STARTCHAR uni259A
ENCODING 9626
SWIDTH 523 0
DWIDTH 6 0
BBX 6 6 0 0
BITMAP
E0
E0
E0
1C
1C
1C
ENDCHAR
STARTCHAR uni259B
ENCODING 9627
SWIDTH 523 0
DWIDTH 6 0
BBX 6 6 0 0
BITMAP
FC
FC
FC
E0
E0
E0
ENDCHAR
STARTCHAR uni259C
ENCODING 9628
SWIDTH 523 0
DWIDTH 6 0
BBX 6 6 0 0
BITMAP
FC
FC
FC
1C
1C
1C
ENDCHAR
STARTCHAR uni259D
ENCODING 9629
SWIDTH 523 0
DWIDTH 6 0
BBX 3 3 3 3
BITMAP
E0
E0
E0
ENDCHAR
STARTCHAR uni259E
ENCODING 9630
SWIDTH 523 0
DWIDTH 6 0
BBX 6 6 0 0
BITMAP
1C
1C
1C
E0
E0
E0
ENDCHAR
STARTCHAR uni259F
ENCODING 9631
SWIDTH 523 0
DWIDTH 6 0
BBX 6 6 0 0
BITMAP
1C
1C
1C
FC
FC
FC
ENDCHAR
STARTCHAR filledbox
ENCODING 9632
SWIDTH 523 0
DWIDTH 6 0
BBX 6 6 0 0
BITMAP
FC
FC
FC
FC
FC
FC
ENDCHAR
STARTCHAR H22073
ENCODING 9633
SWIDTH 523 0
DWIDTH 6 0
BBX 6 6 0 0
BITMAP
FC
84
84
84
84
FC
ENDCHAR
STARTCHAR uni25A2
ENCODING 9634
SWIDTH 523 0
DWIDTH 6 0
BBX 6 6 0 0
BITMAP
78
84
84
84
84
78
ENDCHAR
STARTCHAR uni25A3
ENCODING 9635
SWIDTH 523 0
DWIDTH 6 0
BBX 5 5 0 0
BITMAP
F8
88
A8
88
F8
ENDCHAR
STARTCHAR uni25A4
ENCODING 9636
SWIDTH 523 0
DWIDTH 6 0
BBX 5 5 0 0
BITMAP
F8
88
F8
88
F8
ENDCHAR
STARTCHAR uni25A5
ENCODING 9637
SWIDTH 523 0
DWIDTH 6 0
BBX 5 5 0 0
BITMAP
F8
A8
A8
A8
F8
ENDCHAR
STARTCHAR uni25A6
ENCODING 9638
SWIDTH 523 0
DWIDTH 6 0
BBX 5 5 0 0
BITMAP
F8
A8
F8
A8
F8
ENDCHAR
STARTCHAR uni25A7
ENCODING 9639
SWIDTH 523 0
DWIDTH 6 0
BBX 5 5 0 0
BITMAP
F8
C8
A8
98
F8
ENDCHAR
STARTCHAR uni25A8
ENCODING 9640
SWIDTH 523 0
DWIDTH 6 0
BBX 5 5 0 0
BITMAP
F8
98
A8
C8
F8
ENDCHAR
STARTCHAR uni25A9
ENCODING 9641
SWIDTH 523 0
DWIDTH 6 0
BBX 5 5 0 0
BITMAP
F8
A8
D8
A8
F8
ENDCHAR
STARTCHAR H18543
ENCODING 9642
SWIDTH 523 0
DWIDTH 6 0
BBX 5 5 0 0
BITMAP
F8
F8
F8
F8
F8
ENDCHAR
STARTCHAR H18551
ENCODING 9643
SWIDTH 523 0
DWIDTH 6 0
BBX 5 5 0 0
BITMAP
F8
88
88
88
F8
ENDCHAR
STARTCHAR filledrect
ENCODING 9644
SWIDTH 523 0
DWIDTH 6 0
BBX 5 3 0 0
BITMAP
F8
F8
F8
ENDCHAR
STARTCHAR uni25AD
ENCODING 9645
SWIDTH 523 0
DWIDTH 6 0
BBX 5 3 0 0
BITMAP
F8
88
F8
ENDCHAR
STARTCHAR uni25AE
ENCODING 9646
SWIDTH 523 0
DWIDTH 6 0
BBX 4 7 0 0
BITMAP
F0
F0
F0
F0
F0
F0
F0
ENDCHAR
STARTCHAR uni25AF
ENCODING 9647
SWIDTH 523 0
DWIDTH 6 0
BBX 4 7 0 0
BITMAP
F0
90
90
90
90
90
F0
ENDCHAR
STARTCHAR uni25B0
ENCODING 9648
SWIDTH 523 0
DWIDTH 6 0
BBX 6 3 0 0
BITMAP
7C
FC
F8
ENDCHAR
STARTCHAR uni25B1
ENCODING 9649
SWIDTH 523 0
DWIDTH 6 0
BBX 6 3 0 0
BITMAP
7C
84
F8
ENDCHAR
STARTCHAR triagup
ENCODING 9650
SWIDTH 523 0
DWIDTH 6 0
BBX 6 6 0 0
BITMAP
30
30
78
78
FC
FC
ENDCHAR
STARTCHAR uni25B3
ENCODING 9651
SWIDTH 523 0
DWIDTH 6 0
BBX 6 6 0 0
BITMAP
30
30
48
48
84
FC
ENDCHAR
STARTCHAR uni25B4
ENCODING 9652
SWIDTH 523 0
DWIDTH 6 0
BBX 5 6 0 0
BITMAP
20
20
70
70
F8
F8
ENDCHAR
STARTCHAR uni25B5
ENCODING 9653
SWIDTH 523 0
DWIDTH 6 0
BBX 5 6 0 0
BITMAP
20
20
50
50
88
F8
ENDCHAR
STARTCHAR uni25B6
ENCODING 9654
SWIDTH 523 0
DWIDTH 6 0
BBX 6 6 0 0
BITMAP
C0
F0
FC
FC
F0
C0
ENDCHAR
STARTCHAR uni25B7
ENCODING 9655
SWIDTH 523 0
DWIDTH 6 0
BBX 6 6 0 0
BITMAP
C0
B0
8C
8C
B0
C0
ENDCHAR
STARTCHAR uni25B8
ENCODING 9656
SWIDTH 523 0
DWIDTH 6 0
BBX 6 5 0 0
BITMAP
C0
F0
FC
F0
C0
ENDCHAR
STARTCHAR uni25B9
ENCODING 9657
SWIDTH 523 0
DWIDTH 6 0
BBX 6 5 0 0
BITMAP
C0
B0
8C
B0
C0
ENDCHAR
STARTCHAR triagrt
ENCODING 9658
SWIDTH 523 0
DWIDTH 6 0
BBX 7 5 -1 0
BITMAP
C0
F8
FE
F8
C0
ENDCHAR
STARTCHAR uni25BB
ENCODING 9659
SWIDTH 523 0
DWIDTH 6 0
BBX 7 5 -1 0
BITMAP
C0
B8
86
B8
C0
ENDCHAR
STARTCHAR triagdn
ENCODING 9660
SWIDTH 523 0
DWIDTH 6 0
BBX 6 6 0 0
BITMAP
FC
FC
78
78
30
30
ENDCHAR
STARTCHAR uni25BD
ENCODING 9661
SWIDTH 523 0
DWIDTH 6 0
BBX 6 6 0 0
BITMAP
FC
84
48
48
30
30
ENDCHAR
STARTCHAR uni25BE
ENCODING 9662
SWIDTH 523 0
DWIDTH 6 0
BBX 5 6 0 0
BITMAP
F8
F8
70
70
20
20
ENDCHAR
STARTCHAR uni25BF
ENCODING 9663
SWIDTH 523 0
DWIDTH 6 0
BBX 5 6 0 0
BITMAP
F8
88
50
50
20
20
ENDCHAR
STARTCHAR uni25C0
ENCODING 9664
SWIDTH 523 0
DWIDTH 6 0
BBX 6 6 0 0
BITMAP
0C
3C
FC
FC
3C
0C
ENDCHAR
STARTCHAR uni25C1
ENCODING 9665
SWIDTH 523 0
DWIDTH 6 0
BBX 6 6 0 0
BITMAP
0C
34
C4
C4
34
0C
ENDCHAR
STARTCHAR uni25C2
ENCODING 9666
SWIDTH 523 0
DWIDTH 6 0
BBX 6 5 0 0
BITMAP
0C
3C
FC
3C
0C
ENDCHAR
STARTCHAR uni25C3
ENCODING 9667
SWIDTH 523 0
DWIDTH 6 0
BBX 6 5 0 0
BITMAP
0C
34
C4
34
0C
ENDCHAR
STARTCHAR triaglf
ENCODING 9668
SWIDTH 523 0
DWIDTH 6 0
BBX 7 5 -1 0
BITMAP
06
3E
FE
3E
06
ENDCHAR
STARTCHAR uni25C5
ENCODING 9669
SWIDTH 523 0
DWIDTH 6 0
BBX 7 5 -1 0
BITMAP
06
3A
C2
3A
06
ENDCHAR
STARTCHAR uni25C6
ENCODING 9670
SWIDTH 523 0
DWIDTH 6 0
BBX 5 5 0 1
BITMAP
20
70
F8
70
20
ENDCHAR
STARTCHAR uni25C7
ENCODING 9671
SWIDTH 523 0
DWIDTH 6 0
BBX 5 5 0 1
BITMAP
20
50
88
50
20
ENDCHAR
STARTCHAR uni25C8
ENCODING 9672
SWIDTH 523 0
DWIDTH 6 0
BBX 5 5 0 1
BITMAP
20
50
A8
50
20
ENDCHAR
STARTCHAR uni25C9
ENCODING 9673
SWIDTH 523 0
DWIDTH 6 0
BBX 5 5 0 1
BITMAP
70
88
A8
88
70
ENDCHAR
STARTCHAR lozenge
ENCODING 9674
SWIDTH 523 0
DWIDTH 6 0
BBX 5 7 0 0
BITMAP
20
50
50
88
50
50
20
ENDCHAR
STARTCHAR circle
ENCODING 9675
SWIDTH 523 0
DWIDTH 6 0
BBX 5 5 0 1
BITMAP
70
88
88
88
70
ENDCHAR
STARTCHAR uni25CC
ENCODING 9676
SWIDTH 523 0
DWIDTH 6 0
BBX 5 5 0 1
BITMAP
50
88
00
88
50
ENDCHAR
STARTCHAR uni25CD
ENCODING 9677
SWIDTH 523 0
DWIDTH 6 0
BBX 5 5 0 0
BITMAP
70
A8
A8
A8
70
ENDCHAR
STARTCHAR H18533
ENCODING 9679
SWIDTH 523 0
DWIDTH 6 0
BBX 4 4 1 2
BITMAP
60
F0
F0
60
ENDCHAR
STARTCHAR uni25D0
ENCODING 9680
SWIDTH 523 0
DWIDTH 6 0
BBX 4 4 1 2
BITMAP
60
D0
D0
60
ENDCHAR
STARTCHAR uni25D1
ENCODING 9681
SWIDTH 523 0
DWIDTH 6 0
BBX 4 4 1 2
BITMAP
60
B0
B0
60
ENDCHAR
STARTCHAR uni25D2
ENCODING 9682
SWIDTH 523 0
DWIDTH 6 0
BBX 4 4 1 2
BITMAP
60
F0
90
60
ENDCHAR
STARTCHAR uni25D3
ENCODING 9683
SWIDTH 523 0
DWIDTH 6 0
BBX 4 4 1 2
BITMAP
60
90
F0
60
ENDCHAR
STARTCHAR uni25D4
ENCODING 9684
SWIDTH 523 0
DWIDTH 6 0
BBX 4 4 1 2
BITMAP
60
B0
90
60
ENDCHAR
STARTCHAR uni25D5
ENCODING 9685
SWIDTH 523 0
DWIDTH 6 0
BBX 4 4 1 2
BITMAP
60
B0
F0
60
ENDCHAR
STARTCHAR uni25D6
ENCODING 9686
SWIDTH 523 0
DWIDTH 6 0
BBX 2 4 1 2
BITMAP
40
C0
C0
40
ENDCHAR
STARTCHAR uni25D7
ENCODING 9687
SWIDTH 523 0
DWIDTH 6 0
BBX 2 4 3 2
BITMAP
80
C0
C0
80
ENDCHAR
STARTCHAR invbullet
ENCODING 9688
SWIDTH 523 0
DWIDTH 6 0
BBX 6 11 0 -2
BITMAP
FC
FC
FC
FC
CC
84
84
CC
FC
FC
FC
ENDCHAR
STARTCHAR invcircle
ENCODING 9689
SWIDTH 523 0
DWIDTH 6 0
BBX 7 7 -1 0
BITMAP
FE
C6
BA
BA
BA
C6
FE
ENDCHAR
STARTCHAR uni25DA
ENCODING 9690
SWIDTH 523 0
DWIDTH 6 0
BBX 7 4 -1 3
BITMAP
FE
C6
BA
BA
ENDCHAR
STARTCHAR uni25DB
ENCODING 9691
SWIDTH 523 0
DWIDTH 6 0
BBX 7 4 -1 0
BITMAP
BA
BA
C6
FE
ENDCHAR
STARTCHAR uni25DC
ENCODING 9692
SWIDTH 523 0
DWIDTH 6 0
BBX 3 3 0 3
BITMAP
60
80
80
ENDCHAR
STARTCHAR uni25DD
ENCODING 9693
SWIDTH 523 0
DWIDTH 6 0
BBX 3 3 2 3
BITMAP
C0
20
20
ENDCHAR
STARTCHAR uni25DE
ENCODING 9694
SWIDTH 523 0
DWIDTH 6 0
BBX 3 3 2 1
BITMAP
20
20
C0
ENDCHAR
STARTCHAR uni25DF
ENCODING 9695
SWIDTH 523 0
DWIDTH 6 0
BBX 3 3 0 1
BITMAP
80
80
60
ENDCHAR
STARTCHAR uni25E0
ENCODING 9696
SWIDTH 523 0
DWIDTH 6 0
BBX 5 3 0 3
BITMAP
70
88
88
ENDCHAR
STARTCHAR uni25E1
ENCODING 9697
SWIDTH 523 0
DWIDTH 6 0
BBX 6 3 0 1
BITMAP
84
44
38
ENDCHAR
STARTCHAR uni25E2
ENCODING 9698
SWIDTH 523 0
DWIDTH 6 0
BBX 6 6 0 0
BITMAP
04
0C
1C
3C
7C
FC
ENDCHAR
STARTCHAR uni25E3
ENCODING 9699
SWIDTH 523 0
DWIDTH 6 0
BBX 6 6 0 0
BITMAP
80
C0
E0
F0
F8
FC
ENDCHAR
STARTCHAR uni25E4
ENCODING 9700
SWIDTH 523 0
DWIDTH 6 0
BBX 6 6 0 0
BITMAP
FC
F8
F0
E0
C0
80
ENDCHAR
STARTCHAR uni25E5
ENCODING 9701
SWIDTH 523 0
DWIDTH 6 0
BBX 6 6 0 0
BITMAP
FC
7C
3C
1C
0C
04
ENDCHAR
STARTCHAR openbullet
ENCODING 9702
SWIDTH 523 0
DWIDTH 6 0
BBX 5 5 0 1
BITMAP
70
88
88
88
70
ENDCHAR
STARTCHAR uni25E7
ENCODING 9703
SWIDTH 523 0
DWIDTH 6 0
BBX 5 5 0 0
BITMAP
F8
C8
C8
C8
F8
ENDCHAR
STARTCHAR uni25E8
ENCODING 9704
SWIDTH 523 0
DWIDTH 6 0
BBX 5 5 0 0
BITMAP
F8
98
98
98
F8
ENDCHAR
STARTCHAR uni25E9
ENCODING 9705
SWIDTH 523 0
DWIDTH 6 0
BBX 5 5 0 0
BITMAP
F8
E8
C8
88
F8
ENDCHAR
STARTCHAR uni25EA
ENCODING 9706
SWIDTH 523 0
DWIDTH 6 0
BBX 5 5 0 0
BITMAP
F8
88
98
B8
F8
ENDCHAR
STARTCHAR uni25EB
ENCODING 9707
SWIDTH 523 0
DWIDTH 6 0
BBX 5 5 0 0
BITMAP
F8
A8
A8
A8
F8
ENDCHAR
STARTCHAR uni25EC
ENCODING 9708
SWIDTH 523 0
DWIDTH 6 0
BBX 5 7 0 0
BITMAP
20
20
50
50
A8
88
F8
ENDCHAR
STARTCHAR uni25ED
ENCODING 9709
SWIDTH 523 0
DWIDTH 6 0
BBX 5 6 0 0
BITMAP
20
20
70
70
E8
F8
ENDCHAR
STARTCHAR uni25EE
ENCODING 9710
SWIDTH 523 0
DWIDTH 6 0
BBX 5 6 0 0
BITMAP
20
20
70
70
B8
F8
ENDCHAR
STARTCHAR uni25EF
ENCODING 9711
SWIDTH 523 0
DWIDTH 6 0
BBX 5 5 0 0
BITMAP
70
88
88
88
70
ENDCHAR
STARTCHAR uni25F0
ENCODING 9712
SWIDTH 523 0
DWIDTH 6 0
BBX 5 5 0 0
BITMAP
F8
A8
E8
88
F8
ENDCHAR
STARTCHAR uni25F1
ENCODING 9713
SWIDTH 523 0
DWIDTH 6 0
BBX 5 5 0 0
BITMAP
F8
88
E8
A8
F8
ENDCHAR
STARTCHAR uni25F2
ENCODING 9714
SWIDTH 523 0
DWIDTH 6 0
BBX 5 5 0 0
BITMAP
F8
88
B8
A8
F8
ENDCHAR
STARTCHAR uni25F3
ENCODING 9715
SWIDTH 523 0
DWIDTH 6 0
BBX 5 5 0 0
BITMAP
F8
A8
B8
88
F8
ENDCHAR
STARTCHAR uni25F4
ENCODING 9716
SWIDTH 523 0
DWIDTH 6 0
BBX 5 5 0 0
BITMAP
70
A8
E8
88
70
ENDCHAR
STARTCHAR uni25F5
ENCODING 9717
SWIDTH 523 0
DWIDTH 6 0
BBX 5 5 0 0
BITMAP
70
88
E8
A8
70
ENDCHAR
STARTCHAR uni25F6
ENCODING 9718
SWIDTH 523 0
DWIDTH 6 0
BBX 5 5 0 0
BITMAP
70
88
B8
A8
70
ENDCHAR
STARTCHAR uni25F7
ENCODING 9719
SWIDTH 523 0
DWIDTH 6 0
BBX 5 5 0 0
BITMAP
70
A8
B8
88
70
ENDCHAR
STARTCHAR uni25F8
ENCODING 9720
SWIDTH 523 0
DWIDTH 6 0
BBX 4 4 0 3
BITMAP
F0
A0
C0
80
ENDCHAR
STARTCHAR uni25F9
ENCODING 9721
SWIDTH 523 0
DWIDTH 6 0
BBX 4 4 2 3
BITMAP
F0
50
30
10
ENDCHAR
STARTCHAR uni25FA
ENCODING 9722
SWIDTH 523 0
DWIDTH 6 0
BBX 4 4 0 0
BITMAP
80
C0
A0
F0
ENDCHAR
STARTCHAR uni25FB
ENCODING 9723
SWIDTH 523 0
DWIDTH 6 0
BBX 6 6 0 0
BITMAP
FC
84
84
84
84
FC
ENDCHAR
STARTCHAR uni25FC
ENCODING 9724
SWIDTH 523 0
DWIDTH 6 0
BBX 6 6 0 0
BITMAP
FC
FC
FC
FC
FC
FC
ENDCHAR
STARTCHAR uni25FD
ENCODING 9725
SWIDTH 523 0
DWIDTH 6 0
BBX 5 5 0 1
BITMAP
F8
88
88
88
F8
ENDCHAR
STARTCHAR uni25FE
ENCODING 9726
SWIDTH 523 0
DWIDTH 6 0
BBX 5 5 0 1
BITMAP
F8
F8
F8
F8
F8
ENDCHAR
STARTCHAR uni25FF
ENCODING 9727
SWIDTH 523 0
DWIDTH 6 0
BBX 4 4 2 0
BITMAP
10
30
50
F0
ENDCHAR
STARTCHAR uni2600
ENCODING 9728
SWIDTH 523 0
DWIDTH 6 0
BBX 5 7 0 -2
BITMAP
20
88
70
F8
70
88
20
ENDCHAR
STARTCHAR uni2601
ENCODING 9729
SWIDTH 523 0
DWIDTH 6 0
BBX 6 3 0 1
BITMAP
28
7C
FC
ENDCHAR
STARTCHAR uni2602
ENCODING 9730
SWIDTH 523 0
DWIDTH 6 0
BBX 5 6 0 0
BITMAP
70
F8
20
20
20
40
ENDCHAR
STARTCHAR uni2604
ENCODING 9732
SWIDTH 523 0
DWIDTH 6 0
BBX 6 7 0 0
BITMAP
20
28
48
10
44
A8
40
ENDCHAR
STARTCHAR uni2605
ENCODING 9733
SWIDTH 523 0
DWIDTH 6 0
BBX 5 5 0 1
BITMAP
20
20
F8
70
88
ENDCHAR
STARTCHAR uni2606
ENCODING 9734
SWIDTH 523 0
DWIDTH 6 0
BBX 5 5 0 2
BITMAP
20
20
D8
70
88
ENDCHAR
STARTCHAR uni2607
ENCODING 9735
SWIDTH 523 0
DWIDTH 6 0
BBX 4 7 0 0
BITMAP
10
20
40
80
50
30
70
ENDCHAR
STARTCHAR uni2608
ENCODING 9736
SWIDTH 523 0
DWIDTH 6 0
BBX 5 7 0 0
BITMAP
F8
88
90
A0
A8
98
B8
ENDCHAR
STARTCHAR uni2609
ENCODING 9737
SWIDTH 523 0
DWIDTH 6 0
BBX 5 5 0 0
BITMAP
70
88
A8
88
70
ENDCHAR
STARTCHAR uni2616
ENCODING 9750
SWIDTH 523 0
DWIDTH 6 0
BBX 5 7 0 0
BITMAP
20
50
88
88
88
88
F8
ENDCHAR
STARTCHAR uni2617
ENCODING 9751
SWIDTH 523 0
DWIDTH 6 0
BBX 5 7 0 0
BITMAP
20
70
F8
F8
F8
F8
F8
ENDCHAR
STARTCHAR spade
ENCODING 9824
SWIDTH 523 0
DWIDTH 6 0
BBX 5 8 0 -1
BITMAP
20
20
70
F8
F8
70
20
70
ENDCHAR
STARTCHAR uni2661
ENCODING 9825
SWIDTH 523 0
DWIDTH 6 0
BBX 5 5 0 0
BITMAP
50
A8
88
50
20
ENDCHAR
STARTCHAR uni2662
ENCODING 9826
SWIDTH 523 0
DWIDTH 6 0
BBX 5 6 0 0
BITMAP
20
50
88
88
50
20
ENDCHAR
STARTCHAR club
ENCODING 9827
SWIDTH 523 0
DWIDTH 6 0
BBX 5 8 0 -1
BITMAP
70
70
20
F8
F8
F8
20
70
ENDCHAR
STARTCHAR uni2664
ENCODING 9828
SWIDTH 523 0
DWIDTH 6 0
BBX 5 8 0 -1
BITMAP
20
20
50
88
88
70
20
70
ENDCHAR
STARTCHAR heart
ENCODING 9829
SWIDTH 698 0
DWIDTH 8 0
BBX 7 6 0 0
BITMAP
6C
FE
FE
7C
38
10
ENDCHAR
STARTCHAR diamond
ENCODING 9830
SWIDTH 523 0
DWIDTH 6 0
BBX 5 9 0 -2
BITMAP
20
20
70
70
F8
70
70
20
20
ENDCHAR
STARTCHAR uni2667
ENCODING 9831
SWIDTH 523 0
DWIDTH 6 0
BBX 5 8 0 -1
BITMAP
70
50
20
F8
A8
F8
20
70
ENDCHAR
STARTCHAR uni2669
ENCODING 9833
SWIDTH 523 0
DWIDTH 6 0
BBX 3 7 0 0
BITMAP
20
20
20
20
20
E0
E0
ENDCHAR
STARTCHAR musicalnote
ENCODING 9834
SWIDTH 523 0
DWIDTH 6 0
BBX 5 7 0 0
BITMAP
30
28
28
20
20
E0
E0
ENDCHAR
STARTCHAR musicalnotedbl
ENCODING 9835
SWIDTH 523 0
DWIDTH 6 0
BBX 7 7 0 0
BITMAP
3E
3E
22
22
22
EE
EE
ENDCHAR
STARTCHAR uni266C
ENCODING 9836
SWIDTH 523 0
DWIDTH 6 0
BBX 7 7 0 0
BITMAP
3E
3E
22
3E
22
EE
EE
ENDCHAR
STARTCHAR uni266D
ENCODING 9837
SWIDTH 523 0
DWIDTH 6 0
BBX 3 7 0 0
BITMAP
80
80
80
80
E0
A0
C0
ENDCHAR
STARTCHAR uni266E
ENCODING 9838
SWIDTH 523 0
DWIDTH 6 0
BBX 4 8 0 -1
BITMAP
80
90
B0
D0
B0
D0
90
10
ENDCHAR
STARTCHAR uni266F
ENCODING 9839
SWIDTH 523 0
DWIDTH 6 0
BBX 5 8 0 -1
BITMAP
10
58
70
D0
58
70
D0
40
ENDCHAR
STARTCHAR uni2713
ENCODING 10003
SWIDTH 436 0
DWIDTH 5 0
BBX 5 7 0 0
BITMAP
08
10
10
A0
A0
40
40
ENDCHAR
STARTCHAR uni2714
ENCODING 10004
SWIDTH 523 0
DWIDTH 6 0
BBX 6 7 0 0
BITMAP
04
0C
08
D8
50
70
20
ENDCHAR
STARTCHAR char10006
ENCODING 10005
SWIDTH 436 0
DWIDTH 5 0
BBX 5 5 0 0
BITMAP
88
50
20
50
88
ENDCHAR
STARTCHAR char10007
ENCODING 10006
SWIDTH 436 0
DWIDTH 5 0
BBX 5 5 0 0
BITMAP
D8
50
20
50
D8
ENDCHAR
STARTCHAR char10008
ENCODING 10007
SWIDTH 436 0
DWIDTH 5 0
BBX 5 7 0 0
BITMAP
08
48
50
20
50
90
80
ENDCHAR
STARTCHAR char10009
ENCODING 10008
SWIDTH 436 0
DWIDTH 5 0
BBX 5 7 0 0
BITMAP
08
58
70
20
70
D0
80
ENDCHAR
STARTCHAR uni271A
ENCODING 10010
SWIDTH 523 0
DWIDTH 6 0
BBX 6 6 0 0
BITMAP
30
30
FC
FC
30
30
ENDCHAR
STARTCHAR uni271B
ENCODING 10011
SWIDTH 523 0
DWIDTH 6 0
BBX 5 5 0 1
BITMAP
20
20
D8
20
20
ENDCHAR
STARTCHAR uni271C
ENCODING 10012
SWIDTH 523 0
DWIDTH 6 0
BBX 6 6 0 0
BITMAP
30
30
CC
CC
30
30
ENDCHAR
STARTCHAR char10013
ENCODING 10013
SWIDTH 436 0
DWIDTH 5 0
BBX 5 6 0 0
BITMAP
20
20
F8
20
20
20
ENDCHAR
STARTCHAR char10014
ENCODING 10014
SWIDTH 523 0
DWIDTH 6 0
BBX 6 7 0 0
BITMAP
30
30
FC
FC
30
30
30
ENDCHAR
STARTCHAR uni272A
ENCODING 10026
SWIDTH 523 0
DWIDTH 6 0
BBX 7 8 -1 -1
BITMAP
7C
EE
EE
82
C6
BA
FE
7C
ENDCHAR
STARTCHAR uni272B
ENCODING 10027
SWIDTH 523 0
DWIDTH 6 0
BBX 5 5 0 2
BITMAP
20
20
D8
70
88
ENDCHAR
STARTCHAR uni2733
ENCODING 10035
SWIDTH 523 0
DWIDTH 6 0
BBX 5 7 0 -1
BITMAP
20
A8
70
F8
70
A8
20
ENDCHAR
STARTCHAR uni2736
ENCODING 10038
SWIDTH 523 0
DWIDTH 6 0
BBX 5 6 0 0
BITMAP
20
A8
70
70
A8
20
ENDCHAR
STARTCHAR uni274F
ENCODING 10063
SWIDTH 523 0
DWIDTH 6 0
BBX 6 6 0 1
BITMAP
F8
8C
8C
8C
FC
7C
ENDCHAR
STARTCHAR uni2750
ENCODING 10064
SWIDTH 523 0
DWIDTH 6 0
BBX 6 6 0 1
BITMAP
7C
FC
8C
8C
8C
F8
ENDCHAR
STARTCHAR uni2751
ENCODING 10065
SWIDTH 523 0
DWIDTH 6 0
BBX 6 6 0 1
BITMAP
F8
8C
8C
8C
FC
7C
ENDCHAR
STARTCHAR uni2752
ENCODING 10066
SWIDTH 523 0
DWIDTH 6 0
BBX 6 6 0 1
BITMAP
7C
FC
8C
8C
8C
F8
ENDCHAR
STARTCHAR uni275B
ENCODING 10075
SWIDTH 523 0
DWIDTH 6 0
BBX 2 4 2 3
BITMAP
40
80
C0
C0
ENDCHAR
STARTCHAR uni275C
ENCODING 10076
SWIDTH 523 0
DWIDTH 6 0
BBX 2 4 2 4
BITMAP
C0
C0
40
80
ENDCHAR
STARTCHAR uni275D
ENCODING 10077
SWIDTH 523 0
DWIDTH 6 0
BBX 5 4 0 3
BITMAP
48
90
D8
D8
ENDCHAR
STARTCHAR uni275E
ENCODING 10078
SWIDTH 523 0
DWIDTH 6 0
BBX 5 4 0 4
BITMAP
D8
D8
48
90
ENDCHAR
STARTCHAR uni275F
ENCODING 10079
SWIDTH 523 0
DWIDTH 6 0
BBX 2 4 0 -2
BITMAP
C0
C0
40
80
ENDCHAR
STARTCHAR uni2760
ENCODING 10080
SWIDTH 523 0
DWIDTH 6 0
BBX 5 4 0 -2
BITMAP
D8
D8
48
90
ENDCHAR
STARTCHAR uni2764
ENCODING 10084
SWIDTH 698 0
DWIDTH 8 0
BBX 7 6 0 0
BITMAP
6C
FE
FE
7C
38
10
ENDCHAR
STARTCHAR uni2765
ENCODING 10085
SWIDTH 523 0
DWIDTH 6 0
BBX 5 5 0 1
BITMAP
60
F0
78
F0
60
ENDCHAR
STARTCHAR uni2766
ENCODING 10086
SWIDTH 523 0
DWIDTH 6 0
BBX 8 9 -1 0
BITMAP
12
69
99
96
28
7C
7C
38
10
ENDCHAR
STARTCHAR uni276C
ENCODING 10092
SWIDTH 523 0
DWIDTH 6 0
BBX 5 7 0 0
BITMAP
18
30
60
C0
60
30
18
ENDCHAR
STARTCHAR uni276D
ENCODING 10093
SWIDTH 523 0
DWIDTH 6 0
BBX 5 7 0 0
BITMAP
C0
60
30
18
30
60
C0
ENDCHAR
STARTCHAR uni276E
ENCODING 10094
SWIDTH 523 0
DWIDTH 6 0
BBX 6 8 0 -1
BITMAP
1C
38
70
E0
E0
70
38
1C
ENDCHAR
STARTCHAR uni276F
ENCODING 10095
SWIDTH 523 0
DWIDTH 6 0
BBX 6 8 0 -1
BITMAP
E0
70
38
1C
1C
38
70
E0
ENDCHAR
STARTCHAR uni2770
ENCODING 10096
SWIDTH 523 0
DWIDTH 6 0
BBX 6 8 0 -1
BITMAP
3C
78
F0
E0
E0
F0
78
3C
ENDCHAR
STARTCHAR uni2771
ENCODING 10097
SWIDTH 523 0
DWIDTH 6 0
BBX 6 8 0 -1
BITMAP
F0
78
3C
1C
1C
3C
78
F0
ENDCHAR
STARTCHAR uni278A
ENCODING 10122
SWIDTH 523 0
DWIDTH 6 0
BBX 6 8 0 -1
BITMAP
78
CC
EC
EC
EC
EC
C4
78
ENDCHAR
STARTCHAR uni278B
ENCODING 10123
SWIDTH 523 0
DWIDTH 6 0
BBX 6 8 0 -1
BITMAP
78
CC
B4
F4
EC
DC
84
78
ENDCHAR
STARTCHAR uni278C
ENCODING 10124
SWIDTH 523 0
DWIDTH 6 0
BBX 6 8 0 -1
BITMAP
78
8C
F4
CC
F4
F4
8C
78
ENDCHAR
STARTCHAR uni278D
ENCODING 10125
SWIDTH 523 0
DWIDTH 6 0
BBX 6 8 0 -1
BITMAP
78
E4
D4
B4
84
F4
F4
78
ENDCHAR
STARTCHAR uni278E
ENCODING 10126
SWIDTH 523 0
DWIDTH 6 0
BBX 6 8 0 -1
BITMAP
78
84
BC
8C
F4
F4
8C
78
ENDCHAR
STARTCHAR uni278F
ENCODING 10127
SWIDTH 523 0
DWIDTH 6 0
BBX 6 8 0 -1
BITMAP
78
CC
BC
8C
B4
B4
CC
78
ENDCHAR
STARTCHAR uni2790
ENCODING 10128
SWIDTH 523 0
DWIDTH 6 0
BBX 6 8 0 -1
BITMAP
78
84
F4
EC
EC
DC
DC
78
ENDCHAR
STARTCHAR uni2791
ENCODING 10129
SWIDTH 523 0
DWIDTH 6 0
BBX 6 8 0 -1
BITMAP
78
CC
B4
CC
B4
B4
CC
78
ENDCHAR
STARTCHAR uni2792
ENCODING 10130
SWIDTH 523 0
DWIDTH 6 0
BBX 6 8 0 -1
BITMAP
78
CC
B4
B4
C4
F4
CC
78
ENDCHAR
STARTCHAR uni2793
ENCODING 10131
SWIDTH 523 0
DWIDTH 6 0
BBX 7 8 0 -1
BITMAP
7C
B6
AA
AA
AA
AA
B6
7C
ENDCHAR
STARTCHAR uni2794
ENCODING 10132
SWIDTH 523 0
DWIDTH 6 0
BBX 5 5 0 0
BITMAP
20
10
F8
10
20
ENDCHAR
STARTCHAR uni2795
ENCODING 10133
SWIDTH 523 0
DWIDTH 6 0
BBX 6 6 0 0
BITMAP
30
30
FC
FC
30
30
ENDCHAR
STARTCHAR uni2796
ENCODING 10134
SWIDTH 523 0
DWIDTH 6 0
BBX 6 2 0 2
BITMAP
FC
FC
ENDCHAR
STARTCHAR uni2797
ENCODING 10135
SWIDTH 523 0
DWIDTH 6 0
BBX 6 6 0 0
BITMAP
30
00
FC
FC
00
30
ENDCHAR
STARTCHAR uni2798
ENCODING 10136
SWIDTH 523 0
DWIDTH 6 0
BBX 5 5 0 0
BITMAP
80
40
28
18
38
ENDCHAR
STARTCHAR uni2799
ENCODING 10137
SWIDTH 523 0
DWIDTH 6 0
BBX 5 3 0 1
BITMAP
10
F8
10
ENDCHAR
STARTCHAR uni279A
ENCODING 10138
SWIDTH 523 0
DWIDTH 6 0
BBX 5 5 0 0
BITMAP
38
18
28
40
80
ENDCHAR
STARTCHAR uni279B
ENCODING 10139
SWIDTH 523 0
DWIDTH 6 0
BBX 8 5 -2 0
BITMAP
10
0C
FF
0C
10
ENDCHAR
STARTCHAR uni2B50
ENCODING 11088
SWIDTH 523 0
DWIDTH 6 0
BBX 5 6 0 0
BITMAP
20
20
F8
50
70
88
ENDCHAR
STARTCHAR uni2B5F
ENCODING 11103
SWIDTH 523 0
DWIDTH 6 0
BBX 5 9 0 0
BITMAP
A8
00
A8
00
A8
00
A8
00
A8
ENDCHAR
STARTCHAR uni2B60
ENCODING 11104
SWIDTH 523 0
DWIDTH 6 0
BBX 6 9 0 -1
BITMAP
C0
C8
DC
C8
C8
D0
E0
C0
C0
ENDCHAR
STARTCHAR uni2B61
ENCODING 11105
SWIDTH 523 0
DWIDTH 6 0
BBX 4 7 1 0
BITMAP
C0
C0
F0
00
D0
F0
B0
ENDCHAR
STARTCHAR uni2B62
ENCODING 11106
SWIDTH 523 0
DWIDTH 6 0
BBX 5 8 0 -1
BITMAP
78
80
98
98
80
98
90
60
ENDCHAR
STARTCHAR uni2B63
ENCODING 11107
SWIDTH 523 0
DWIDTH 6 0
BBX 6 8 0 -1
BITMAP
F8
04
98
90
90
90
90
60
ENDCHAR
STARTCHAR uni2B64
ENCODING 11108
SWIDTH 523 0
DWIDTH 6 0
BBX 6 7 0 0
BITMAP
30
48
48
FC
CC
FC
78
ENDCHAR
STARTCHAR uni2B65
ENCODING 11109
SWIDTH 523 0
DWIDTH 6 0
BBX 7 7 0 0
BITMAP
D6
82
38
BA
38
82
D6
ENDCHAR
STARTCHAR uni2B66
ENCODING 11110
SWIDTH 523 0
DWIDTH 6 0
BBX 7 7 0 0
BITMAP
AA
00
FE
FE
FE
00
AA
ENDCHAR
STARTCHAR uni2B67
ENCODING 11111
SWIDTH 610 0
DWIDTH 7 0
BBX 7 7 0 0
BITMAP
7C
EE
EE
E2
FE
FE
7C
ENDCHAR
STARTCHAR uni2B68
ENCODING 11112
SWIDTH 523 0
DWIDTH 6 0
BBX 8 7 0 0
BITMAP
FE
82
BB
BB
BB
82
FE
ENDCHAR
STARTCHAR uni2B69
ENCODING 11113
SWIDTH 523 0
DWIDTH 6 0
BBX 8 7 0 0
BITMAP
FE
82
83
83
83
82
FE
ENDCHAR
STARTCHAR uni2B6A
ENCODING 11114
SWIDTH 523 0
DWIDTH 6 0
BBX 8 7 0 0
BITMAP
FE
82
A3
A3
A3
82
FE
ENDCHAR
STARTCHAR uni2B6B
ENCODING 11115
SWIDTH 523 0
DWIDTH 6 0
BBX 8 7 0 0
BITMAP
FE
82
B3
B3
B3
82
FE
ENDCHAR
STARTCHAR uni2B6C
ENCODING 11116
SWIDTH 523 0
DWIDTH 6 0
BBX 5 7 0 -1
BITMAP
F8
00
20
20
F8
20
20
ENDCHAR
STARTCHAR uni2B6D
ENCODING 11117
SWIDTH 523 0
DWIDTH 6 0
BBX 7 7 0 0
BITMAP
FE
AA
D6
BA
FE
FE
FE
ENDCHAR
STARTCHAR uni2B6E
ENCODING 11118
SWIDTH 523 0
DWIDTH 6 0
BBX 7 7 0 0
BITMAP
FE
BA
D6
EE
FE
FE
FE
ENDCHAR
STARTCHAR uni2B6F
ENCODING 11119
SWIDTH 523 0
DWIDTH 6 0
BBX 5 3 0 1
BITMAP
A8
50
A8
ENDCHAR
STARTCHAR uni2B70
ENCODING 11120
SWIDTH 523 0
DWIDTH 6 0
BBX 5 3 0 1
BITMAP
A8
00
A8
ENDCHAR
STARTCHAR uni2B71
ENCODING 11121
SWIDTH 523 0
DWIDTH 6 0
BBX 5 3 0 1
BITMAP
F8
F8
F8
ENDCHAR
STARTCHAR uni2B80
ENCODING 11136
SWIDTH 523 0
DWIDTH 6 0
BBX 6 11 0 -2
BITMAP
80
C0
E0
F0
F8
FC
F8
F0
E0
C0
80
ENDCHAR
STARTCHAR uni2B81
ENCODING 11137
SWIDTH 523 0
DWIDTH 6 0
BBX 6 11 0 -2
BITMAP
80
40
20
10
08
04
08
10
20
40
80
ENDCHAR
STARTCHAR uni2B82
ENCODING 11138
SWIDTH 523 0
DWIDTH 6 0
BBX 6 11 0 -2
BITMAP
04
0C
1C
3C
7C
FC
7C
3C
1C
0C
04
ENDCHAR
STARTCHAR uni2B83
ENCODING 11139
SWIDTH 523 0
DWIDTH 6 0
BBX 6 11 0 -2
BITMAP
04
08
10
20
40
80
40
20
10
08
04
ENDCHAR
STARTCHAR uni301C
ENCODING 12316
SWIDTH 523 0
DWIDTH 6 0
BBX 6 2 0 3
BITMAP
64
98
ENDCHAR
STARTCHAR uni301D
ENCODING 12317
SWIDTH 523 0
DWIDTH 6 0
BBX 4 3 1 4
BITMAP
A0
A0
50
ENDCHAR
STARTCHAR uni301E
ENCODING 12318
SWIDTH 523 0
DWIDTH 6 0
BBX 4 3 0 4
BITMAP
50
50
A0
ENDCHAR
STARTCHAR uni301F
ENCODING 12319
SWIDTH 523 0
DWIDTH 6 0
BBX 4 2 1 0
BITMAP
50
A0
ENDCHAR
STARTCHAR :3
ENCODING 63743
SWIDTH 523 0
DWIDTH 6 0
BBX 6 7 0 0
BITMAP
CC
CC
00
00
84
B4
CC
ENDCHAR
STARTCHAR fi
ENCODING 64257
SWIDTH 523 0
DWIDTH 6 0
BBX 5 7 0 0
BITMAP
30
40
F8
48
48
48
48
ENDCHAR
STARTCHAR fl
ENCODING 64258
SWIDTH 523 0
DWIDTH 6 0
BBX 5 7 0 0
BITMAP
38
48
E8
48
48
48
48
ENDCHAR
STARTCHAR uniFF3B
ENCODING 65339
SWIDTH 523 0
DWIDTH 6 0
BBX 2 9 2 -1
BITMAP
C0
80
80
80
80
80
80
80
C0
ENDCHAR
STARTCHAR uniFF3C
ENCODING 65340
SWIDTH 523 0
DWIDTH 6 0
BBX 6 6 0 0
BITMAP
80
40
20
10
08
04
ENDCHAR
STARTCHAR uniFF3D
ENCODING 65341
SWIDTH 523 0
DWIDTH 6 0
BBX 2 9 2 -1
BITMAP
C0
40
40
40
40
40
40
40
C0
ENDCHAR
STARTCHAR uniFF3E
ENCODING 65342
SWIDTH 523 0
DWIDTH 6 0
BBX 5 3 1 5
BITMAP
20
50
88
ENDCHAR
STARTCHAR uniFF5E
ENCODING 65374
SWIDTH 523 0
DWIDTH 6 0
BBX 9 2 -2 3
BITMAP
7080
8F00
ENDCHAR
STARTCHAR uniFF62
ENCODING 65378
SWIDTH 523 0
DWIDTH 6 0
BBX 3 6 0 1
BITMAP
E0
80
80
80
80
80
ENDCHAR
STARTCHAR uniFF63
ENCODING 65379
SWIDTH 523 0
DWIDTH 6 0
BBX 3 6 0 0
BITMAP
20
20
20
20
20
E0
ENDCHAR
STARTCHAR uniFF89
ENCODING 65417
SWIDTH 523 0
DWIDTH 6 0
BBX 3 8 0 0
BITMAP
20
20
20
40
40
40
80
80
ENDCHAR
STARTCHAR uniFF9E
ENCODING 65438
SWIDTH 523 0
DWIDTH 6 0
BBX 3 2 1 5
BITMAP
A0
A0
ENDCHAR
STARTCHAR uniFF9F
ENCODING 65439
SWIDTH 523 0
DWIDTH 6 0
BBX 3 3 1 4
BITMAP
40
A0
40
ENDCHAR
STARTCHAR .notdef
ENCODING 65475
SWIDTH 0 0
DWIDTH 0 0
BBX 0 0 0 0
BITMAP
ENDCHAR
ENDFONT
